<?xml version="1.0" encoding="UTF-8" standalone="no"?>
<!DOCTYPE svg PUBLIC "-//W3C//DTD SVG 1.1//EN"
 "http://www.w3.org/Graphics/SVG/1.1/DTD/svg11.dtd">
<!-- Generated by graphviz version 2.49.3 (20211023.0002)
 -->
<!-- Title: G Pages: 1 -->
<svg width="927pt" height="526pt"
 viewBox="0.00 0.00 926.65 525.85" xmlns="http://www.w3.org/2000/svg" xmlns:xlink="http://www.w3.org/1999/xlink">
<g id="graph0" class="graph" transform="scale(1 1) rotate(0) translate(4 521.85)">
<title>G</title><style>.edge>path:hover{stroke-width:8}</style>
<polygon fill="white" stroke="transparent" points="-4,4 -4,-521.85 922.65,-521.85 922.65,4 -4,4"/>
<!-- DarkNews -->
<g id="node1" class="node">
<title>DarkNews</title><style>.edge>path:hover{stroke-width:8}</style>
<ellipse fill="#950303" stroke="black" cx="342.33" cy="-18" rx="37.17" ry="18"/>
<text text-anchor="middle" x="342.33" y="-15.5" font-family="Helvetica,sans-Serif" font-size="10.00" fill="#ffffff">DarkNews</text>
</g>
<!-- DarkNews_GenLauncher -->
<g id="node2" class="node">
<title>DarkNews_GenLauncher</title><style>.edge>path:hover{stroke-width:8}</style>
<ellipse fill="#a44646" stroke="black" cx="451.33" cy="-309.21" rx="54.39" ry="21.43"/>
<text text-anchor="middle" x="451.33" y="-312.21" font-family="Helvetica,sans-Serif" font-size="10.00" fill="#ffffff">DarkNews.</text>
<text text-anchor="middle" x="451.33" y="-301.21" font-family="Helvetica,sans-Serif" font-size="10.00" fill="#ffffff">GenLauncher</text>
</g>
<!-- DarkNews_MC -->
<g id="node3" class="node">
<title>DarkNews_MC</title><style>.edge>path:hover{stroke-width:8}</style>
<ellipse fill="#993333" stroke="black" cx="399.33" cy="-162" rx="47.86" ry="18"/>
<text text-anchor="middle" x="399.33" y="-159.5" font-family="Helvetica,sans-Serif" font-size="10.00" fill="#ffffff">DarkNews.MC</text>
</g>
<!-- DarkNews_MC&#45;&gt;DarkNews -->
<g id="edge1" class="edge">
<title>DarkNews_MC&#45;&gt;DarkNews</title><style>.edge>path:hover{stroke-width:8}</style>
<path fill="none" stroke="black" d="M362.43,-150.37C320.87,-137.28 259.21,-113.94 260.33,-91"/>
</g>
<!-- DarkNews_xsecs -->
<g id="node12" class="node">
<title>DarkNews_xsecs</title><style>.edge>path:hover{stroke-width:8}</style>
<ellipse fill="#964040" stroke="black" cx="342.33" cy="-90" rx="53.64" ry="18"/>
<text text-anchor="middle" x="342.33" y="-87.5" font-family="Helvetica,sans-Serif" font-size="10.00" fill="#ffffff">DarkNews.xsecs</text>
</g>
<!-- DarkNews_MC&#45;&gt;DarkNews_xsecs -->
<g id="edge2" class="edge">
<title>DarkNews_MC&#45;&gt;DarkNews_xsecs</title><style>.edge>path:hover{stroke-width:8}</style>
<path fill="none" stroke="black" d="M385.83,-144.41C378.8,-135.78 370.07,-125.06 362.28,-115.5"/>
<polygon fill="#993333" stroke="black" points="364.77,-113.01 355.75,-107.47 359.35,-117.43 364.77,-113.01"/>
</g>
<!-- DarkNews_const -->
<g id="node4" class="node">
<title>DarkNews_const</title><style>.edge>path:hover{stroke-width:8}</style>
<ellipse fill="#ef0606" stroke="black" cx="411.33" cy="-387.64" rx="52.28" ry="18"/>
<text text-anchor="middle" x="411.33" y="-385.14" font-family="Helvetica,sans-Serif" font-size="10.00" fill="#ffffff">DarkNews.const</text>
</g>
<!-- DarkNews_const&#45;&gt;DarkNews -->
<g id="edge3" class="edge">
<title>DarkNews_const&#45;&gt;DarkNews</title><style>.edge>path:hover{stroke-width:8}</style>
<path fill="none" stroke="black" d="M731.33,-161C722.04,-89.39 487.79,-42.72 387.36,-25.95"/>
<polygon fill="#ef0606" stroke="black" points="387.65,-22.45 377.22,-24.28 386.52,-29.36 387.65,-22.45"/>
<path fill="none" stroke="black" d="M693.33,-233C701.44,-198.54 750.73,-192.62 731.33,-163"/>
</g>
<!-- DarkNews_const&#45;&gt;DarkNews_GenLauncher -->
<g id="edge4" class="edge">
<title>DarkNews_const&#45;&gt;DarkNews_GenLauncher</title><style>.edge>path:hover{stroke-width:8}</style>
<path fill="none" stroke="black" d="M420.21,-369.68C424.9,-360.72 430.78,-349.48 436.17,-339.19"/>
<polygon fill="#ef0606" stroke="black" points="439.39,-340.59 440.92,-330.1 433.19,-337.34 439.39,-340.59"/>
</g>
<!-- DarkNews_const&#45;&gt;DarkNews_MC -->
<g id="edge5" class="edge">
<title>DarkNews_const&#45;&gt;DarkNews_MC</title><style>.edge>path:hover{stroke-width:8}</style>
<path fill="none" stroke="black" d="M693.33,-233C704.73,-185.71 545.4,-170.2 456.67,-165.25"/>
<polygon fill="#ef0606" stroke="black" points="456.65,-161.74 446.48,-164.7 456.28,-168.73 456.65,-161.74"/>
<path fill="none" stroke="black" d="M399.7,-369.97C386.34,-348.57 368.64,-311.41 388.33,-288 476.9,-182.71 661.11,-368.76 693.33,-235"/>
</g>
<!-- DarkNews_decay_rates -->
<g id="node5" class="node">
<title>DarkNews_decay_rates</title><style>.edge>path:hover{stroke-width:8}</style>
<ellipse fill="#a83838" stroke="black" cx="177.33" cy="-309.21" rx="50.41" ry="21.43"/>
<text text-anchor="middle" x="177.33" y="-312.21" font-family="Helvetica,sans-Serif" font-size="10.00" fill="#ffffff">DarkNews.</text>
<text text-anchor="middle" x="177.33" y="-301.21" font-family="Helvetica,sans-Serif" font-size="10.00" fill="#ffffff">decay_rates</text>
</g>
<!-- DarkNews_const&#45;&gt;DarkNews_decay_rates -->
<g id="edge6" class="edge">
<title>DarkNews_const&#45;&gt;DarkNews_decay_rates</title><style>.edge>path:hover{stroke-width:8}</style>
<path fill="none" stroke="black" d="M374.77,-374.7C334.62,-361.58 269.97,-340.47 225.66,-326"/>
<polygon fill="#ef0606" stroke="black" points="226.57,-322.61 215.97,-322.83 224.39,-329.27 226.57,-322.61"/>
</g>
<!-- DarkNews_detector -->
<g id="node6" class="node">
<title>DarkNews_detector</title><style>.edge>path:hover{stroke-width:8}</style>
<ellipse fill="#9d4343" stroke="black" cx="63.33" cy="-309.21" rx="45.92" ry="21.43"/>
<text text-anchor="middle" x="63.33" y="-312.21" font-family="Helvetica,sans-Serif" font-size="10.00" fill="#ffffff">DarkNews.</text>
<text text-anchor="middle" x="63.33" y="-301.21" font-family="Helvetica,sans-Serif" font-size="10.00" fill="#ffffff">detector</text>
</g>
<!-- DarkNews_const&#45;&gt;DarkNews_detector -->
<g id="edge7" class="edge">
<title>DarkNews_const&#45;&gt;DarkNews_detector</title><style>.edge>path:hover{stroke-width:8}</style>
<path fill="none" stroke="black" d="M367.51,-377.52C350.32,-373.98 330.41,-369.95 312.33,-366.43 226.26,-349.65 202.9,-353.63 118.33,-330.43 114.53,-329.38 110.61,-328.19 106.7,-326.92"/>
<polygon fill="#ef0606" stroke="black" points="107.67,-323.55 97.08,-323.63 105.41,-330.17 107.67,-323.55"/>
</g>
<!-- DarkNews_model -->
<g id="node8" class="node">
<title>DarkNews_model</title><style>.edge>path:hover{stroke-width:8}</style>
<ellipse fill="#a13535" stroke="black" cx="260.33" cy="-234" rx="54.99" ry="18"/>
<text text-anchor="middle" x="260.33" y="-231.5" font-family="Helvetica,sans-Serif" font-size="10.00" fill="#ffffff">DarkNews.model</text>
</g>
<!-- DarkNews_const&#45;&gt;DarkNews_model -->
<g id="edge8" class="edge">
<title>DarkNews_const&#45;&gt;DarkNews_model</title><style>.edge>path:hover{stroke-width:8}</style>
<path fill="none" stroke="black" d="M363.36,-380.39C323.73,-372.16 271.46,-353.29 255.33,-310.21"/>
</g>
<!-- DarkNews_phase_space -->
<g id="node10" class="node">
<title>DarkNews_phase_space</title><style>.edge>path:hover{stroke-width:8}</style>
<ellipse fill="#964040" stroke="black" cx="725.33" cy="-309.21" rx="53.98" ry="21.43"/>
<text text-anchor="middle" x="725.33" y="-312.21" font-family="Helvetica,sans-Serif" font-size="10.00" fill="#ffffff">DarkNews.</text>
<text text-anchor="middle" x="725.33" y="-301.21" font-family="Helvetica,sans-Serif" font-size="10.00" fill="#ffffff">phase_space</text>
</g>
<!-- DarkNews_const&#45;&gt;DarkNews_phase_space -->
<g id="edge9" class="edge">
<title>DarkNews_const&#45;&gt;DarkNews_phase_space</title><style>.edge>path:hover{stroke-width:8}</style>
<path fill="none" stroke="black" d="M455.61,-377.98C505.99,-367.84 590.59,-349.93 662.33,-330.43 666.69,-329.24 671.2,-327.94 675.7,-326.6"/>
<polygon fill="#ef0606" stroke="black" points="676.97,-329.87 685.5,-323.59 674.92,-323.18 676.97,-329.87"/>
</g>
<!-- DarkNews_printer -->
<g id="node11" class="node">
<title>DarkNews_printer</title><style>.edge>path:hover{stroke-width:8}</style>
<ellipse fill="#964040" stroke="black" cx="607.33" cy="-309.21" rx="45.92" ry="21.43"/>
<text text-anchor="middle" x="607.33" y="-312.21" font-family="Helvetica,sans-Serif" font-size="10.00" fill="#ffffff">DarkNews.</text>
<text text-anchor="middle" x="607.33" y="-301.21" font-family="Helvetica,sans-Serif" font-size="10.00" fill="#ffffff">printer</text>
</g>
<!-- DarkNews_const&#45;&gt;DarkNews_printer -->
<g id="edge10" class="edge">
<title>DarkNews_const&#45;&gt;DarkNews_printer</title><style>.edge>path:hover{stroke-width:8}</style>
<path fill="none" stroke="black" d="M444.58,-373.67C477.33,-360.91 527.53,-341.33 563.52,-327.3"/>
<polygon fill="#ef0606" stroke="black" points="565.22,-330.39 573.26,-323.5 562.68,-323.87 565.22,-330.39"/>
</g>
<!-- DarkNews_const&#45;&gt;DarkNews_xsecs -->
<g id="edge11" class="edge">
<title>DarkNews_const&#45;&gt;DarkNews_xsecs</title><style>.edge>path:hover{stroke-width:8}</style>
<path fill="none" stroke="black" d="M693.33,-233C700.46,-202.72 718.22,-181.67 693.33,-163"/>
<path fill="none" stroke="black" d="M693.33,-161C648.34,-127.23 491.38,-106.21 403.36,-96.8"/>
<polygon fill="#ef0606" stroke="black" points="403.55,-93.3 393.24,-95.74 402.82,-100.26 403.55,-93.3"/>
</g>
<!-- DarkNews_decay_rates&#45;&gt;DarkNews -->
<g id="edge12" class="edge">
<title>DarkNews_decay_rates&#45;&gt;DarkNews</title><style>.edge>path:hover{stroke-width:8}</style>
<path fill="none" stroke="black" d="M170.63,-288.11C166.54,-271.66 164.31,-248.92 177.33,-235"/>
</g>
<!-- DarkNews_decay_rates&#45;&gt;DarkNews_model -->
<g id="edge13" class="edge">
<title>DarkNews_decay_rates&#45;&gt;DarkNews_model</title><style>.edge>path:hover{stroke-width:8}</style>
<path fill="none" stroke="black" d="M198.28,-289.74C209.2,-280.1 222.67,-268.22 234.27,-257.99"/>
<polygon fill="#a83838" stroke="black" points="236.76,-260.47 241.94,-251.23 232.12,-255.22 236.76,-260.47"/>
</g>
<!-- DarkNews_detector&#45;&gt;DarkNews -->
<g id="edge14" class="edge">
<title>DarkNews_detector&#45;&gt;DarkNews</title><style>.edge>path:hover{stroke-width:8}</style>
<path fill="none" stroke="black" d="M177.33,-233C185.08,-224.73 187.75,-223.39 196.33,-216 224.32,-191.9 250.79,-198.68 260.33,-163"/>
<path fill="none" stroke="black" d="M260.33,-89C261.56,-64.08 283.73,-46.14 304.71,-34.66"/>
<polygon fill="#9d4343" stroke="black" points="306.56,-37.65 313.88,-29.99 303.38,-31.41 306.56,-37.65"/>
<path fill="none" stroke="black" d="M94.63,-293.56C119.39,-280.78 153.62,-260.33 177.33,-235"/>
<path fill="none" stroke="black" d="M260.33,-161C268.38,-130.95 258.81,-122.07 260.33,-91"/>
</g>
<!-- DarkNews_fourvec -->
<g id="node7" class="node">
<title>DarkNews_fourvec</title><style>.edge>path:hover{stroke-width:8}</style>
<ellipse fill="#bc2f2f" stroke="black" cx="703.33" cy="-387.64" rx="45.92" ry="21.43"/>
<text text-anchor="middle" x="703.33" y="-390.64" font-family="Helvetica,sans-Serif" font-size="10.00" fill="#ffffff">DarkNews.</text>
<text text-anchor="middle" x="703.33" y="-379.64" font-family="Helvetica,sans-Serif" font-size="10.00" fill="#ffffff">fourvec</text>
</g>
<!-- DarkNews_fourvec&#45;&gt;DarkNews -->
<g id="edge15" class="edge">
<title>DarkNews_fourvec&#45;&gt;DarkNews</title><style>.edge>path:hover{stroke-width:8}</style>
<path fill="none" stroke="black" d="M883.33,-308.21C884.82,-261.34 812.3,-281.64 807.33,-235"/>
<path fill="none" stroke="black" d="M749.54,-386.12C802.26,-382.76 881.5,-368.07 883.33,-310.21"/>
</g>
<!-- DarkNews_fourvec&#45;&gt;DarkNews_phase_space -->
<g id="edge16" class="edge">
<title>DarkNews_fourvec&#45;&gt;DarkNews_phase_space</title><style>.edge>path:hover{stroke-width:8}</style>
<path fill="none" stroke="black" d="M709.11,-366.56C711.45,-358.46 714.18,-348.95 716.74,-340.07"/>
<polygon fill="#bc2f2f" stroke="black" points="720.11,-341 719.52,-330.42 713.39,-339.07 720.11,-341"/>
</g>
<!-- DarkNews_fourvec&#45;&gt;DarkNews_printer -->
<g id="edge17" class="edge">
<title>DarkNews_fourvec&#45;&gt;DarkNews_printer</title><style>.edge>path:hover{stroke-width:8}</style>
<path fill="none" stroke="black" d="M681.07,-368.91C668.1,-358.59 651.58,-345.44 637.47,-334.2"/>
<polygon fill="#bc2f2f" stroke="black" points="639.48,-331.33 629.48,-327.84 635.12,-336.81 639.48,-331.33"/>
</g>
<!-- DarkNews_model&#45;&gt;DarkNews -->
<g id="edge18" class="edge">
<title>DarkNews_model&#45;&gt;DarkNews</title><style>.edge>path:hover{stroke-width:8}</style>
<path fill="none" stroke="black" d="M257.91,-215.99C256.43,-201.62 255.62,-180.61 260.33,-163"/>
</g>
<!-- DarkNews_model&#45;&gt;DarkNews_MC -->
<g id="edge19" class="edge">
<title>DarkNews_model&#45;&gt;DarkNews_MC</title><style>.edge>path:hover{stroke-width:8}</style>
<path fill="none" stroke="black" d="M289.14,-218.5C310.52,-207.73 339.85,-192.96 362.87,-181.36"/>
<polygon fill="#a13535" stroke="black" points="364.63,-184.39 371.99,-176.77 361.48,-178.14 364.63,-184.39"/>
</g>
<!-- DarkNews_pdg -->
<g id="node9" class="node">
<title>DarkNews_pdg</title><style>.edge>path:hover{stroke-width:8}</style>
<ellipse fill="#ef0606" stroke="black" cx="255.33" cy="-387.64" rx="48.04" ry="18"/>
<text text-anchor="middle" x="255.33" y="-385.14" font-family="Helvetica,sans-Serif" font-size="10.00" fill="#ffffff">DarkNews.pdg</text>
</g>
<!-- DarkNews_pdg&#45;&gt;DarkNews -->
<g id="edge20" class="edge">
<title>DarkNews_pdg&#45;&gt;DarkNews</title><style>.edge>path:hover{stroke-width:8}</style>
<path fill="none" stroke="black" d="M266.64,-370C284.76,-342.76 320.59,-286.51 343.33,-235"/>
<path fill="none" stroke="black" d="M343.33,-233C354.78,-202.74 332.39,-194.06 323.33,-163"/>
<path fill="none" stroke="black" d="M323.33,-161C311.62,-120.82 258.28,-132.81 260.33,-91"/>
</g>
<!-- DarkNews_pdg&#45;&gt;DarkNews_MC -->
<g id="edge21" class="edge">
<title>DarkNews_pdg&#45;&gt;DarkNews_MC</title><style>.edge>path:hover{stroke-width:8}</style>
<path fill="none" stroke="black" d="M343.33,-233C350.99,-215.67 364.03,-198.99 375.6,-186.27"/>
<polygon fill="#ef0606" stroke="black" points="378.24,-188.56 382.55,-178.88 373.15,-183.76 378.24,-188.56"/>
</g>
<!-- DarkNews_pdg&#45;&gt;DarkNews_decay_rates -->
<g id="edge22" class="edge">
<title>DarkNews_pdg&#45;&gt;DarkNews_decay_rates</title><style>.edge>path:hover{stroke-width:8}</style>
<path fill="none" stroke="black" d="M238.79,-370.43C228.67,-360.51 215.48,-347.59 203.92,-336.26"/>
<polygon fill="#ef0606" stroke="black" points="206.19,-333.59 196.6,-329.09 201.3,-338.59 206.19,-333.59"/>
</g>
<!-- DarkNews_pdg&#45;&gt;DarkNews_detector -->
<g id="edge23" class="edge">
<title>DarkNews_pdg&#45;&gt;DarkNews_detector</title><style>.edge>path:hover{stroke-width:8}</style>
<path fill="none" stroke="black" d="M223.63,-374.02C191.79,-361.35 142.5,-341.72 106.98,-327.59"/>
<polygon fill="#ef0606" stroke="black" points="107.94,-324.2 97.35,-323.75 105.35,-330.7 107.94,-324.2"/>
</g>
<!-- DarkNews_pdg&#45;&gt;DarkNews_model -->
<g id="edge24" class="edge">
<title>DarkNews_pdg&#45;&gt;DarkNews_model</title><style>.edge>path:hover{stroke-width:8}</style>
<path fill="none" stroke="black" d="M258.66,-369.64C261,-353.74 262.59,-329.6 255.33,-310.21"/>
<path fill="none" stroke="black" d="M255.33,-308.21C249.89,-293.67 250.76,-276.37 253.18,-262.24"/>
<polygon fill="#ef0606" stroke="black" points="256.66,-262.65 255.24,-252.15 249.81,-261.25 256.66,-262.65"/>
</g>
<!-- DarkNews_pdg&#45;&gt;DarkNews_printer -->
<g id="edge25" class="edge">
<title>DarkNews_pdg&#45;&gt;DarkNews_printer</title><style>.edge>path:hover{stroke-width:8}</style>
<path fill="none" stroke="black" d="M296.16,-377.78C347.19,-366.71 437.22,-347.17 514.33,-330.43 528.11,-327.44 543.03,-324.19 556.8,-321.2"/>
<polygon fill="#ef0606" stroke="black" points="557.56,-324.62 566.59,-319.07 556.08,-317.77 557.56,-324.62"/>
</g>
<!-- DarkNews_pdg&#45;&gt;DarkNews_xsecs -->
<g id="edge26" class="edge">
<title>DarkNews_pdg&#45;&gt;DarkNews_xsecs</title><style>.edge>path:hover{stroke-width:8}</style>
<path fill="none" stroke="black" d="M323.33,-161C319.12,-146.55 322.98,-130.33 328.3,-117.15"/>
<polygon fill="#ef0606" stroke="black" points="331.62,-118.29 332.54,-107.74 325.24,-115.42 331.62,-118.29"/>
</g>
<!-- DarkNews_phase_space&#45;&gt;DarkNews -->
<g id="edge27" class="edge">
<title>DarkNews_phase_space&#45;&gt;DarkNews</title><style>.edge>path:hover{stroke-width:8}</style>
<path fill="none" stroke="black" d="M761.83,-293.36C785.02,-281.25 810.18,-261.76 807.33,-235"/>
</g>
<!-- DarkNews_printer&#45;&gt;DarkNews -->
<g id="edge28" class="edge">
<title>DarkNews_printer&#45;&gt;DarkNews</title><style>.edge>path:hover{stroke-width:8}</style>
<path fill="none" stroke="black" d="M807.33,-233C802.48,-187.34 737.24,-208.54 731.33,-163"/>
<path fill="none" stroke="black" d="M641.84,-295.16C648.61,-292.7 655.67,-290.21 662.33,-288 727.45,-266.37 814.59,-303.23 807.33,-235"/>
</g>
<!-- DarkNews_xsecs&#45;&gt;DarkNews -->
<g id="edge29" class="edge">
<title>DarkNews_xsecs&#45;&gt;DarkNews</title><style>.edge>path:hover{stroke-width:8}</style>
<path fill="none" stroke="black" d="M342.33,-71.7C342.33,-63.98 342.33,-54.71 342.33,-46.11"/>
<polygon fill="#964040" stroke="black" points="345.83,-46.1 342.33,-36.1 338.83,-46.1 345.83,-46.1"/>
</g>
<!-- numpy -->
<g id="node13" class="node">
<title>numpy</title><style>.edge>path:hover{stroke-width:8}</style>
<ellipse fill="#06f906" stroke="black" cx="331.33" cy="-499.85" rx="27.84" ry="18"/>
<text text-anchor="middle" x="331.33" y="-497.35" font-family="Helvetica,sans-Serif" font-size="10.00" fill="#000000">numpy</text>
</g>
<!-- numpy&#45;&gt;DarkNews -->
<g id="edge30" class="edge">
<title>numpy&#45;&gt;DarkNews</title><style>.edge>path:hover{stroke-width:8}</style>
<path fill="none" stroke="black" d="M607.33,-386.64C668.46,-328.68 730.44,-391.61 788.33,-330.43 818.06,-299.02 811.91,-278 807.33,-235"/>
</g>
<!-- numpy&#45;&gt;DarkNews_GenLauncher -->
<g id="edge31" class="edge">
<title>numpy&#45;&gt;DarkNews_GenLauncher</title><style>.edge>path:hover{stroke-width:8}</style>
<path fill="none" stroke="black" d="M607.33,-386.64C624.99,-369.24 555.63,-342.67 503.74,-325.88"/>
<polygon fill="#06f906" stroke="black" points="504.54,-322.46 493.95,-322.76 502.41,-329.13 504.54,-322.46"/>
<path fill="none" stroke="black" d="M331.33,-444.85C358.7,-388.56 562.75,-432.57 607.33,-388.64"/>
</g>
<!-- numpy&#45;&gt;DarkNews_MC -->
<g id="edge32" class="edge">
<title>numpy&#45;&gt;DarkNews_MC</title><style>.edge>path:hover{stroke-width:8}</style>
<path fill="none" stroke="black" d="M331.33,-444.85C331.51,-444.49 375.81,-260.64 392.8,-190.11"/>
<polygon fill="#06f906" stroke="black" points="396.26,-190.72 395.2,-180.18 389.45,-189.08 396.26,-190.72"/>
</g>
<!-- numpy&#45;&gt;DarkNews_const -->
<g id="edge33" class="edge">
<title>numpy&#45;&gt;DarkNews_const</title><style>.edge>path:hover{stroke-width:8}</style>
<path fill="none" stroke="black" d="M331.33,-444.85C339.34,-428.39 354.79,-415.82 370,-406.79"/>
<polygon fill="#06f906" stroke="black" points="371.82,-409.78 378.87,-401.88 368.43,-403.66 371.82,-409.78"/>
</g>
<!-- numpy&#45;&gt;DarkNews_decay_rates -->
<g id="edge34" class="edge">
<title>numpy&#45;&gt;DarkNews_decay_rates</title><style>.edge>path:hover{stroke-width:8}</style>
<path fill="none" stroke="black" d="M120.33,-386.64C101.85,-372.15 121.36,-350.25 142.43,-333.6"/>
<polygon fill="#06f906" stroke="black" points="144.63,-336.32 150.51,-327.5 140.42,-330.73 144.63,-336.32"/>
</g>
<!-- numpy&#45;&gt;DarkNews_detector -->
<g id="edge35" class="edge">
<title>numpy&#45;&gt;DarkNews_detector</title><style>.edge>path:hover{stroke-width:8}</style>
<path fill="none" stroke="black" d="M120.33,-386.64C103.78,-373.66 89.62,-354.74 79.55,-338.97"/>
<polygon fill="#06f906" stroke="black" points="82.33,-336.81 74.11,-330.12 76.36,-340.47 82.33,-336.81"/>
</g>
<!-- numpy&#45;&gt;DarkNews_fourvec -->
<g id="edge36" class="edge">
<title>numpy&#45;&gt;DarkNews_fourvec</title><style>.edge>path:hover{stroke-width:8}</style>
<path fill="none" stroke="black" d="M331.33,-444.85C359.73,-386.45 557.47,-420.64 621.33,-408.85 632.15,-406.86 643.67,-404.29 654.56,-401.67"/>
<polygon fill="#06f906" stroke="black" points="655.46,-405.05 664.33,-399.25 653.78,-398.25 655.46,-405.05"/>
</g>
<!-- numpy&#45;&gt;DarkNews_model -->
<g id="edge37" class="edge">
<title>numpy&#45;&gt;DarkNews_model</title><style>.edge>path:hover{stroke-width:8}</style>
<path fill="none" stroke="black" d="M120.33,-386.64C76.5,-352.28 37.58,-377.83 8.33,-330.43 -1.57,-314.38 -3.64,-302.56 8.33,-288 60.99,-223.98 110.4,-269.92 191.33,-252 196.97,-250.75 202.85,-249.39 208.69,-248.01"/>
<polygon fill="#06f906" stroke="black" points="209.54,-251.4 218.45,-245.66 207.91,-244.59 209.54,-251.4"/>
<path fill="none" stroke="black" d="M327.66,-481.77C326.2,-470.94 325.94,-456.94 331.33,-445.85"/>
<path fill="none" stroke="black" d="M331.33,-444.85C332.66,-442.13 122.67,-390.57 120.33,-388.64"/>
</g>
<!-- numpy&#45;&gt;DarkNews_pdg -->
<g id="edge38" class="edge">
<title>numpy&#45;&gt;DarkNews_pdg</title><style>.edge>path:hover{stroke-width:8}</style>
<path fill="none" stroke="black" d="M331.33,-444.85C340.34,-426.34 322.27,-412.47 301.5,-403.14"/>
<polygon fill="#06f906" stroke="black" points="302.76,-399.88 292.18,-399.3 300.09,-406.35 302.76,-399.88"/>
</g>
<!-- numpy&#45;&gt;DarkNews_phase_space -->
<g id="edge39" class="edge">
<title>numpy&#45;&gt;DarkNews_phase_space</title><style>.edge>path:hover{stroke-width:8}</style>
<path fill="none" stroke="black" d="M607.33,-386.64C629.99,-364.31 660.17,-344.9 684.33,-331.24"/>
<polygon fill="#06f906" stroke="black" points="686.22,-334.19 693.27,-326.28 682.83,-328.07 686.22,-334.19"/>
</g>
<!-- numpy&#45;&gt;DarkNews_printer -->
<g id="edge40" class="edge">
<title>numpy&#45;&gt;DarkNews_printer</title><style>.edge>path:hover{stroke-width:8}</style>
<path fill="none" stroke="black" d="M607.33,-386.64C619.2,-374.95 619.43,-356.35 616.58,-340.43"/>
<polygon fill="#06f906" stroke="black" points="619.95,-339.45 614.36,-330.45 613.12,-340.98 619.95,-339.45"/>
</g>
<!-- numpy&#45;&gt;DarkNews_xsecs -->
<g id="edge41" class="edge">
<title>numpy&#45;&gt;DarkNews_xsecs</title><style>.edge>path:hover{stroke-width:8}</style>
<path fill="none" stroke="black" d="M607.33,-386.64C632.23,-362.11 565.53,-362.79 552.33,-330.43 545.21,-312.97 540.61,-302.76 552.33,-288 596.32,-232.62 663.34,-307.38 707.33,-252 732.24,-220.65 725.36,-187.03 693.33,-163"/>
</g>
<!-- pyximport -->
<g id="node14" class="node">
<title>pyximport</title><style>.edge>path:hover{stroke-width:8}</style>
<ellipse fill="#2f2fdb" stroke="black" cx="883.33" cy="-499.85" rx="35.14" ry="18"/>
<text text-anchor="middle" x="883.33" y="-497.35" font-family="Helvetica,sans-Serif" font-size="10.00" fill="#ffffff">pyximport</text>
</g>
<!-- pyximport&#45;&gt;DarkNews -->
<g id="edge42" class="edge">
<title>pyximport&#45;&gt;DarkNews</title><style>.edge>path:hover{stroke-width:8}</style>
<path fill="none" stroke="black" d="M883.33,-386.64C871.61,-354.76 882.26,-344.16 883.33,-310.21"/>
</g>
<!-- pyximport&#45;&gt;DarkNews_MC -->
<g id="edge43" class="edge">
<title>pyximport&#45;&gt;DarkNews_MC</title><style>.edge>path:hover{stroke-width:8}</style>
<path fill="none" stroke="black" d="M883.33,-386.64C846.25,-284.19 805.51,-263.25 707.33,-216 626.52,-177.11 521.66,-166.34 457.49,-163.6"/>
<polygon fill="#2f2fdb" stroke="black" points="457.29,-160.09 447.17,-163.21 457.03,-167.08 457.29,-160.09"/>
</g>
<!-- pyximport&#45;&gt;DarkNews_fourvec -->
<g id="edge44" class="edge">
<title>pyximport&#45;&gt;DarkNews_fourvec</title><style>.edge>path:hover{stroke-width:8}</style>
<path fill="none" stroke="black" d="M883.33,-444.85C870.91,-422.12 805.07,-406.02 756.59,-397.03"/>
<polygon fill="#2f2fdb" stroke="black" points="757,-393.54 746.54,-395.22 755.76,-400.43 757,-393.54"/>
<path fill="none" stroke="black" d="M887.36,-481.59C888.97,-470.69 889.25,-456.67 883.33,-445.85"/>
</g>
<!-- pyximport&#45;&gt;DarkNews_phase_space -->
<g id="edge45" class="edge">
<title>pyximport&#45;&gt;DarkNews_phase_space</title><style>.edge>path:hover{stroke-width:8}</style>
<path fill="none" stroke="black" d="M883.33,-386.64C869.05,-347.19 824.43,-328.06 786.23,-318.82"/>
<polygon fill="#2f2fdb" stroke="black" points="786.69,-315.33 776.17,-316.57 785.16,-322.16 786.69,-315.33"/>
<path fill="none" stroke="black" d="M883.33,-444.85C871.35,-422.93 891.84,-412.13 883.33,-388.64"/>
</g>
</g>
</svg>
