<?xml version="1.0" encoding="UTF-8" standalone="no"?>
<!DOCTYPE svg PUBLIC "-//W3C//DTD SVG 1.1//EN"
 "http://www.w3.org/Graphics/SVG/1.1/DTD/svg11.dtd">
<!-- Generated by graphviz version 2.49.3 (20211023.0002)
 -->
<!-- Title: G Pages: 1 -->
<svg width="1419pt" height="724pt"
 viewBox="0.00 0.00 1419.18 724.13" xmlns="http://www.w3.org/2000/svg" xmlns:xlink="http://www.w3.org/1999/xlink">
<g id="graph0" class="graph" transform="scale(1 1) rotate(0) translate(4 720.13)">
<title>G</title><style>.edge>path:hover{stroke-width:8}</style>
<polygon fill="white" stroke="transparent" points="-4,4 -4,-720.13 1415.18,-720.13 1415.18,4 -4,4"/>
<!-- DarkNews -->
<g id="node1" class="node">
<title>DarkNews</title><style>.edge>path:hover{stroke-width:8}</style>
<ellipse fill="#950303" stroke="black" cx="855" cy="-18" rx="37.17" ry="18"/>
<text text-anchor="middle" x="855" y="-15.5" font-family="Helvetica,sans-Serif" font-size="10.00" fill="#ffffff">DarkNews</text>
</g>
<!-- DarkNews_GenLauncher -->
<g id="node2" class="node">
<title>DarkNews_GenLauncher</title><style>.edge>path:hover{stroke-width:8}</style>
<ellipse fill="#a44646" stroke="black" cx="975" cy="-315.64" rx="54.39" ry="21.43"/>
<text text-anchor="middle" x="975" y="-318.64" font-family="Helvetica,sans-Serif" font-size="10.00" fill="#ffffff">DarkNews.</text>
<text text-anchor="middle" x="975" y="-307.64" font-family="Helvetica,sans-Serif" font-size="10.00" fill="#ffffff">GenLauncher</text>
</g>
<!-- DarkNews_MC -->
<g id="node3" class="node">
<title>DarkNews_MC</title><style>.edge>path:hover{stroke-width:8}</style>
<ellipse fill="#8b2222" stroke="black" cx="773" cy="-162" rx="47.86" ry="18"/>
<text text-anchor="middle" x="773" y="-159.5" font-family="Helvetica,sans-Serif" font-size="10.00" fill="#ffffff">DarkNews.MC</text>
</g>
<!-- DarkNews_MC&#45;&gt;DarkNews -->
<g id="edge1" class="edge">
<title>DarkNews_MC&#45;&gt;DarkNews</title><style>.edge>path:hover{stroke-width:8}</style>
<path fill="none" stroke="black" d="M766.5,-144.05C761.33,-127.33 757.28,-102.64 773,-91"/>
</g>
<!-- DarkNews_xsecs -->
<g id="node16" class="node">
<title>DarkNews_xsecs</title><style>.edge>path:hover{stroke-width:8}</style>
<ellipse fill="#993333" stroke="black" cx="855" cy="-90" rx="53.64" ry="18"/>
<text text-anchor="middle" x="855" y="-87.5" font-family="Helvetica,sans-Serif" font-size="10.00" fill="#ffffff">DarkNews.xsecs</text>
</g>
<!-- DarkNews_MC&#45;&gt;DarkNews_xsecs -->
<g id="edge2" class="edge">
<title>DarkNews_MC&#45;&gt;DarkNews_xsecs</title><style>.edge>path:hover{stroke-width:8}</style>
<path fill="none" stroke="black" d="M791.61,-145.12C802.43,-135.87 816.27,-124.07 828.25,-113.84"/>
<polygon fill="#8b2222" stroke="black" points="830.85,-116.22 836.18,-107.06 826.3,-110.89 830.85,-116.22"/>
</g>
<!-- DarkNews_amplitudes -->
<g id="node4" class="node">
<title>DarkNews_amplitudes</title><style>.edge>path:hover{stroke-width:8}</style>
<ellipse fill="#a83838" stroke="black" cx="781" cy="-315.64" rx="45.92" ry="21.43"/>
<text text-anchor="middle" x="781" y="-318.64" font-family="Helvetica,sans-Serif" font-size="10.00" fill="#ffffff">DarkNews.</text>
<text text-anchor="middle" x="781" y="-307.64" font-family="Helvetica,sans-Serif" font-size="10.00" fill="#ffffff">amplitudes</text>
</g>
<!-- DarkNews_integrands -->
<g id="node10" class="node">
<title>DarkNews_integrands</title><style>.edge>path:hover{stroke-width:8}</style>
<ellipse fill="#8a2e2e" stroke="black" cx="740" cy="-237.21" rx="45.92" ry="21.43"/>
<text text-anchor="middle" x="740" y="-240.21" font-family="Helvetica,sans-Serif" font-size="10.00" fill="#ffffff">DarkNews.</text>
<text text-anchor="middle" x="740" y="-229.21" font-family="Helvetica,sans-Serif" font-size="10.00" fill="#ffffff">integrands</text>
</g>
<!-- DarkNews_amplitudes&#45;&gt;DarkNews_integrands -->
<g id="edge3" class="edge">
<title>DarkNews_amplitudes&#45;&gt;DarkNews_integrands</title><style>.edge>path:hover{stroke-width:8}</style>
<path fill="none" stroke="black" d="M770.44,-294.96C765.89,-286.47 760.47,-276.36 755.47,-267.05"/>
<polygon fill="#a83838" stroke="black" points="758.48,-265.25 750.67,-258.09 752.31,-268.56 758.48,-265.25"/>
</g>
<!-- DarkNews_const -->
<g id="node5" class="node">
<title>DarkNews_const</title><style>.edge>path:hover{stroke-width:8}</style>
<ellipse fill="#db0505" stroke="black" cx="818" cy="-394.07" rx="52.28" ry="18"/>
<text text-anchor="middle" x="818" y="-391.57" font-family="Helvetica,sans-Serif" font-size="10.00" fill="#ffffff">DarkNews.const</text>
</g>
<!-- DarkNews_const&#45;&gt;DarkNews -->
<g id="edge4" class="edge">
<title>DarkNews_const&#45;&gt;DarkNews</title><style>.edge>path:hover{stroke-width:8}</style>
<path fill="none" stroke="black" d="M855,-236.21C846.96,-204.68 863.33,-194.46 855,-163"/>
<path fill="none" stroke="black" d="M855,-161C842.74,-114.68 734.49,-119.52 773,-91"/>
</g>
<!-- DarkNews_const&#45;&gt;DarkNews_GenLauncher -->
<g id="edge5" class="edge">
<title>DarkNews_const&#45;&gt;DarkNews_GenLauncher</title><style>.edge>path:hover{stroke-width:8}</style>
<path fill="none" stroke="black" d="M847.16,-378.87C871.28,-367.13 905.84,-350.31 932.95,-337.11"/>
<polygon fill="#db0505" stroke="black" points="934.74,-340.13 942.2,-332.61 931.67,-333.84 934.74,-340.13"/>
</g>
<!-- DarkNews_const&#45;&gt;DarkNews_MC -->
<g id="edge6" class="edge">
<title>DarkNews_const&#45;&gt;DarkNews_MC</title><style>.edge>path:hover{stroke-width:8}</style>
<path fill="none" stroke="black" d="M855,-314.64C859.54,-280.98 863.39,-271.13 855,-238.21"/>
<path fill="none" stroke="black" d="M855,-236.21C848.99,-212.64 828.63,-194.39 809.71,-182.01"/>
<polygon fill="#db0505" stroke="black" points="811.52,-179.01 801.17,-176.73 807.84,-184.96 811.52,-179.01"/>
</g>
<!-- DarkNews_const&#45;&gt;DarkNews_amplitudes -->
<g id="edge7" class="edge">
<title>DarkNews_const&#45;&gt;DarkNews_amplitudes</title><style>.edge>path:hover{stroke-width:8}</style>
<path fill="none" stroke="black" d="M809.79,-376.1C805.45,-367.15 800.01,-355.91 795.03,-345.62"/>
<polygon fill="#db0505" stroke="black" points="798.14,-344.01 790.63,-336.53 791.84,-347.06 798.14,-344.01"/>
</g>
<!-- DarkNews_decay_rates -->
<g id="node7" class="node">
<title>DarkNews_decay_rates</title><style>.edge>path:hover{stroke-width:8}</style>
<ellipse fill="#a51d1d" stroke="black" cx="591" cy="-315.64" rx="50.41" ry="21.43"/>
<text text-anchor="middle" x="591" y="-318.64" font-family="Helvetica,sans-Serif" font-size="10.00" fill="#ffffff">DarkNews.</text>
<text text-anchor="middle" x="591" y="-307.64" font-family="Helvetica,sans-Serif" font-size="10.00" fill="#ffffff">decay_rates</text>
</g>
<!-- DarkNews_const&#45;&gt;DarkNews_decay_rates -->
<g id="edge8" class="edge">
<title>DarkNews_const&#45;&gt;DarkNews_decay_rates</title><style>.edge>path:hover{stroke-width:8}</style>
<path fill="none" stroke="black" d="M782.03,-380.96C743.41,-367.95 681.85,-347.23 639.09,-332.83"/>
<polygon fill="#db0505" stroke="black" points="640.05,-329.46 629.46,-329.59 637.82,-336.1 640.05,-329.46"/>
</g>
<!-- DarkNews_detector -->
<g id="node8" class="node">
<title>DarkNews_detector</title><style>.edge>path:hover{stroke-width:8}</style>
<ellipse fill="#913030" stroke="black" cx="929" cy="-237.21" rx="45.92" ry="21.43"/>
<text text-anchor="middle" x="929" y="-240.21" font-family="Helvetica,sans-Serif" font-size="10.00" fill="#ffffff">DarkNews.</text>
<text text-anchor="middle" x="929" y="-229.21" font-family="Helvetica,sans-Serif" font-size="10.00" fill="#ffffff">detector</text>
</g>
<!-- DarkNews_const&#45;&gt;DarkNews_detector -->
<g id="edge9" class="edge">
<title>DarkNews_const&#45;&gt;DarkNews_detector</title><style>.edge>path:hover{stroke-width:8}</style>
<path fill="none" stroke="black" d="M855,-314.64C858.06,-291.99 875.45,-273.38 892.61,-260.19"/>
<polygon fill="#db0505" stroke="black" points="894.89,-262.86 900.94,-254.16 890.79,-257.19 894.89,-262.86"/>
</g>
<!-- DarkNews_const&#45;&gt;DarkNews_integrands -->
<g id="edge10" class="edge">
<title>DarkNews_const&#45;&gt;DarkNews_integrands</title><style>.edge>path:hover{stroke-width:8}</style>
<path fill="none" stroke="black" d="M855,-314.64C859.57,-280.8 823.45,-260.96 790.51,-250.01"/>
<polygon fill="#db0505" stroke="black" points="791.48,-246.65 780.89,-247.03 789.4,-253.33 791.48,-246.65"/>
<path fill="none" stroke="black" d="M829.87,-376.47C839.52,-361.63 852,-338.85 855,-316.64"/>
</g>
<!-- DarkNews_model -->
<g id="node11" class="node">
<title>DarkNews_model</title><style>.edge>path:hover{stroke-width:8}</style>
<ellipse fill="#a32828" stroke="black" cx="259" cy="-237.21" rx="54.99" ry="18"/>
<text text-anchor="middle" x="259" y="-234.71" font-family="Helvetica,sans-Serif" font-size="10.00" fill="#ffffff">DarkNews.model</text>
</g>
<!-- DarkNews_const&#45;&gt;DarkNews_model -->
<g id="edge11" class="edge">
<title>DarkNews_const&#45;&gt;DarkNews_model</title><style>.edge>path:hover{stroke-width:8}</style>
<path fill="none" stroke="black" d="M793.64,-378C750.85,-351.65 665.28,-299.51 650,-294.43 513.36,-248.97 469.18,-286.77 328,-258.43 320.85,-256.99 313.37,-255.16 306.08,-253.18"/>
<polygon fill="#db0505" stroke="black" points="306.88,-249.77 296.31,-250.43 304.98,-256.51 306.88,-249.77"/>
</g>
<!-- DarkNews_nuclear_tools -->
<g id="node12" class="node">
<title>DarkNews_nuclear_tools</title><style>.edge>path:hover{stroke-width:8}</style>
<ellipse fill="#a13535" stroke="black" cx="1291" cy="-315.64" rx="53.98" ry="21.43"/>
<text text-anchor="middle" x="1291" y="-318.64" font-family="Helvetica,sans-Serif" font-size="10.00" fill="#ffffff">DarkNews.</text>
<text text-anchor="middle" x="1291" y="-307.64" font-family="Helvetica,sans-Serif" font-size="10.00" fill="#ffffff">nuclear_tools</text>
</g>
<!-- DarkNews_const&#45;&gt;DarkNews_nuclear_tools -->
<g id="edge12" class="edge">
<title>DarkNews_const&#45;&gt;DarkNews_nuclear_tools</title><style>.edge>path:hover{stroke-width:8}</style>
<path fill="none" stroke="black" d="M864.65,-385.53C951.22,-371.54 1136.6,-341.59 1231.84,-326.2"/>
<polygon fill="#db0505" stroke="black" points="1232.57,-329.63 1241.88,-324.58 1231.45,-322.72 1232.57,-329.63"/>
</g>
<!-- DarkNews_phase_space -->
<g id="node14" class="node">
<title>DarkNews_phase_space</title><style>.edge>path:hover{stroke-width:8}</style>
<ellipse fill="#a32828" stroke="black" cx="150" cy="-315.64" rx="53.98" ry="21.43"/>
<text text-anchor="middle" x="150" y="-318.64" font-family="Helvetica,sans-Serif" font-size="10.00" fill="#ffffff">DarkNews.</text>
<text text-anchor="middle" x="150" y="-307.64" font-family="Helvetica,sans-Serif" font-size="10.00" fill="#ffffff">phase_space</text>
</g>
<!-- DarkNews_const&#45;&gt;DarkNews_phase_space -->
<g id="edge13" class="edge">
<title>DarkNews_const&#45;&gt;DarkNews_phase_space</title><style>.edge>path:hover{stroke-width:8}</style>
<path fill="none" stroke="black" d="M765.65,-392.03C660.07,-389.09 414.54,-378.03 213,-336.85 208.26,-335.88 203.37,-334.69 198.51,-333.36"/>
<polygon fill="#db0505" stroke="black" points="199.21,-329.92 188.63,-330.49 197.26,-336.64 199.21,-329.92"/>
</g>
<!-- DarkNews_printer -->
<g id="node15" class="node">
<title>DarkNews_printer</title><style>.edge>path:hover{stroke-width:8}</style>
<ellipse fill="#913030" stroke="black" cx="268" cy="-315.64" rx="45.92" ry="21.43"/>
<text text-anchor="middle" x="268" y="-318.64" font-family="Helvetica,sans-Serif" font-size="10.00" fill="#ffffff">DarkNews.</text>
<text text-anchor="middle" x="268" y="-307.64" font-family="Helvetica,sans-Serif" font-size="10.00" fill="#ffffff">printer</text>
</g>
<!-- DarkNews_const&#45;&gt;DarkNews_printer -->
<g id="edge14" class="edge">
<title>DarkNews_const&#45;&gt;DarkNews_printer</title><style>.edge>path:hover{stroke-width:8}</style>
<path fill="none" stroke="black" d="M770.15,-386.42C667.87,-372.2 428.54,-338.95 321.45,-324.07"/>
<polygon fill="#db0505" stroke="black" points="321.9,-320.6 311.51,-322.69 320.93,-327.53 321.9,-320.6"/>
</g>
<!-- DarkNews_const&#45;&gt;DarkNews_xsecs -->
<g id="edge15" class="edge">
<title>DarkNews_const&#45;&gt;DarkNews_xsecs</title><style>.edge>path:hover{stroke-width:8}</style>
<path fill="none" stroke="black" d="M855,-161C851.35,-147.23 851.05,-131.4 851.78,-118.28"/>
<polygon fill="#db0505" stroke="black" points="855.3,-118.25 852.6,-108 848.32,-117.69 855.3,-118.25"/>
</g>
<!-- DarkNews_const_dics -->
<g id="node6" class="node">
<title>DarkNews_const_dics</title><style>.edge>path:hover{stroke-width:8}</style>
<ellipse fill="#c04040" stroke="black" cx="1244" cy="-472.49" rx="45.92" ry="21.43"/>
<text text-anchor="middle" x="1244" y="-475.49" font-family="Helvetica,sans-Serif" font-size="10.00" fill="#ffffff">DarkNews.</text>
<text text-anchor="middle" x="1244" y="-464.49" font-family="Helvetica,sans-Serif" font-size="10.00" fill="#ffffff">const_dics</text>
</g>
<!-- DarkNews_const_dics&#45;&gt;DarkNews_nuclear_tools -->
<g id="edge16" class="edge">
<title>DarkNews_const_dics&#45;&gt;DarkNews_nuclear_tools</title><style>.edge>path:hover{stroke-width:8}</style>
<path fill="none" stroke="black" d="M1250.14,-451.25C1258.24,-424.58 1272.53,-377.48 1281.89,-346.66"/>
<polygon fill="#c04040" stroke="black" points="1285.3,-347.47 1284.85,-336.89 1278.6,-345.44 1285.3,-347.47"/>
</g>
<!-- DarkNews_decay_rates&#45;&gt;DarkNews -->
<g id="edge17" class="edge">
<title>DarkNews_decay_rates&#45;&gt;DarkNews</title><style>.edge>path:hover{stroke-width:8}</style>
<path fill="none" stroke="black" d="M559.09,-299.12C487.74,-263.94 322.95,-179.9 342,-163"/>
</g>
<!-- DarkNews_decay_rates&#45;&gt;DarkNews_integrands -->
<g id="edge18" class="edge">
<title>DarkNews_decay_rates&#45;&gt;DarkNews_integrands</title><style>.edge>path:hover{stroke-width:8}</style>
<path fill="none" stroke="black" d="M621.87,-298.8C644.85,-287.02 676.38,-270.85 701.08,-258.18"/>
<polygon fill="#a51d1d" stroke="black" points="702.88,-261.19 710.18,-253.51 699.69,-254.96 702.88,-261.19"/>
</g>
<!-- DarkNews_decay_rates&#45;&gt;DarkNews_model -->
<g id="edge19" class="edge">
<title>DarkNews_decay_rates&#45;&gt;DarkNews_model</title><style>.edge>path:hover{stroke-width:8}</style>
<path fill="none" stroke="black" d="M546.09,-306.1C493.55,-295.86 404.05,-277.66 328,-258.43 321.33,-256.74 314.34,-254.84 307.47,-252.9"/>
<polygon fill="#a51d1d" stroke="black" points="308.12,-249.45 297.54,-250.05 306.19,-256.18 308.12,-249.45"/>
</g>
<!-- DarkNews_detector&#45;&gt;DarkNews -->
<g id="edge20" class="edge">
<title>DarkNews_detector&#45;&gt;DarkNews</title><style>.edge>path:hover{stroke-width:8}</style>
<path fill="none" stroke="black" d="M1247,-89C1203.6,-36.91 996.58,-23.55 902.15,-20.15"/>
<polygon fill="#913030" stroke="black" points="902.13,-16.64 892.02,-19.81 901.89,-23.64 902.13,-16.64"/>
<path fill="none" stroke="black" d="M974,-232.33C1079.09,-221.59 1325.96,-185.78 1247,-91"/>
</g>
<!-- DarkNews_fourvec -->
<g id="node9" class="node">
<title>DarkNews_fourvec</title><style>.edge>path:hover{stroke-width:8}</style>
<ellipse fill="#c82323" stroke="black" cx="150" cy="-394.07" rx="45.92" ry="21.43"/>
<text text-anchor="middle" x="150" y="-397.07" font-family="Helvetica,sans-Serif" font-size="10.00" fill="#ffffff">DarkNews.</text>
<text text-anchor="middle" x="150" y="-386.07" font-family="Helvetica,sans-Serif" font-size="10.00" fill="#ffffff">fourvec</text>
</g>
<!-- DarkNews_fourvec&#45;&gt;DarkNews -->
<g id="edge21" class="edge">
<title>DarkNews_fourvec&#45;&gt;DarkNews</title><style>.edge>path:hover{stroke-width:8}</style>
<path fill="none" stroke="black" d="M163,-236.21C174.26,-223.71 179.89,-223.39 195,-216 257.39,-185.5 289.12,-208.02 342,-163"/>
<path fill="none" stroke="black" d="M342,-161C489.76,-35.19 617.04,-206.49 773,-91"/>
<path fill="none" stroke="black" d="M107.08,-386.23C78.23,-379.16 42.25,-364.98 24,-336.85 13.74,-321.03 13.46,-310.06 24,-294.43 61.25,-239.17 118.41,-287.73 163,-238.21"/>
<path fill="none" stroke="black" d="M773,-89C782.11,-82.26 783.44,-79.43 792,-72 804.08,-61.52 817.63,-50.08 829.06,-40.52"/>
<polygon fill="#c82323" stroke="black" points="831.52,-43.03 836.95,-33.93 827.03,-37.65 831.52,-43.03"/>
</g>
<!-- DarkNews_fourvec&#45;&gt;DarkNews_phase_space -->
<g id="edge22" class="edge">
<title>DarkNews_fourvec&#45;&gt;DarkNews_phase_space</title><style>.edge>path:hover{stroke-width:8}</style>
<path fill="none" stroke="black" d="M150,-372.59C150,-364.73 150,-355.58 150,-346.99"/>
<polygon fill="#c82323" stroke="black" points="153.5,-346.91 150,-336.91 146.5,-346.91 153.5,-346.91"/>
</g>
<!-- DarkNews_fourvec&#45;&gt;DarkNews_printer -->
<g id="edge23" class="edge">
<title>DarkNews_fourvec&#45;&gt;DarkNews_printer</title><style>.edge>path:hover{stroke-width:8}</style>
<path fill="none" stroke="black" d="M175.9,-376.29C192.88,-365.29 215.28,-350.79 233.73,-338.84"/>
<polygon fill="#c82323" stroke="black" points="235.67,-341.75 242.16,-333.37 231.87,-335.87 235.67,-341.75"/>
</g>
<!-- DarkNews_integrands&#45;&gt;DarkNews_MC -->
<g id="edge24" class="edge">
<title>DarkNews_integrands&#45;&gt;DarkNews_MC</title><style>.edge>path:hover{stroke-width:8}</style>
<path fill="none" stroke="black" d="M749.02,-216.21C752.77,-207.87 757.19,-198.09 761.19,-189.19"/>
<polygon fill="#8a2e2e" stroke="black" points="764.42,-190.56 765.34,-180 758.04,-187.68 764.42,-190.56"/>
</g>
<!-- DarkNews_model&#45;&gt;DarkNews -->
<g id="edge25" class="edge">
<title>DarkNews_model&#45;&gt;DarkNews</title><style>.edge>path:hover{stroke-width:8}</style>
<path fill="none" stroke="black" d="M277.49,-219.96C294.33,-205.15 319.87,-182.64 342,-163"/>
</g>
<!-- DarkNews_model&#45;&gt;DarkNews_MC -->
<g id="edge26" class="edge">
<title>DarkNews_model&#45;&gt;DarkNews_MC</title><style>.edge>path:hover{stroke-width:8}</style>
<path fill="none" stroke="black" d="M296.68,-223.95C306.77,-221 317.73,-218.1 328,-216 465.93,-187.79 631.21,-172.98 716.25,-166.72"/>
<polygon fill="#a32828" stroke="black" points="716.75,-170.19 726.47,-165.98 716.24,-163.21 716.75,-170.19"/>
</g>
<!-- DarkNews_nuclear_tools&#45;&gt;DarkNews_detector -->
<g id="edge27" class="edge">
<title>DarkNews_nuclear_tools&#45;&gt;DarkNews_detector</title><style>.edge>path:hover{stroke-width:8}</style>
<path fill="none" stroke="black" d="M1244.42,-304.8C1176.44,-290.45 1050.5,-263.87 980.07,-249"/>
<polygon fill="#a13535" stroke="black" points="980.6,-245.53 970.1,-246.89 979.16,-252.38 980.6,-245.53"/>
</g>
<!-- DarkNews_pdg -->
<g id="node13" class="node">
<title>DarkNews_pdg</title><style>.edge>path:hover{stroke-width:8}</style>
<ellipse fill="#db0505" stroke="black" cx="338" cy="-394.07" rx="48.04" ry="18"/>
<text text-anchor="middle" x="338" y="-391.57" font-family="Helvetica,sans-Serif" font-size="10.00" fill="#ffffff">DarkNews.pdg</text>
</g>
<!-- DarkNews_pdg&#45;&gt;DarkNews -->
<g id="edge28" class="edge">
<title>DarkNews_pdg&#45;&gt;DarkNews</title><style>.edge>path:hover{stroke-width:8}</style>
<path fill="none" stroke="black" d="M342,-236.21C357.84,-207.79 317.22,-184.09 342,-163"/>
<path fill="none" stroke="black" d="M342,-314.64C342.36,-280.67 325.47,-267.89 342,-238.21"/>
</g>
<!-- DarkNews_pdg&#45;&gt;DarkNews_MC -->
<g id="edge29" class="edge">
<title>DarkNews_pdg&#45;&gt;DarkNews_MC</title><style>.edge>path:hover{stroke-width:8}</style>
<path fill="none" stroke="black" d="M418,-236.21C458.28,-193.93 626.74,-174.47 716.36,-166.97"/>
<polygon fill="#db0505" stroke="black" points="716.67,-170.46 726.36,-166.16 716.11,-163.48 716.67,-170.46"/>
<path fill="none" stroke="black" d="M342,-314.64C342.51,-266.74 384.96,-272.9 418,-238.21"/>
</g>
<!-- DarkNews_pdg&#45;&gt;DarkNews_decay_rates -->
<g id="edge30" class="edge">
<title>DarkNews_pdg&#45;&gt;DarkNews_decay_rates</title><style>.edge>path:hover{stroke-width:8}</style>
<path fill="none" stroke="black" d="M374.25,-382.12C418.09,-368.87 492.12,-346.51 541.27,-331.66"/>
<polygon fill="#db0505" stroke="black" points="542.5,-334.95 551.06,-328.7 540.48,-328.25 542.5,-334.95"/>
</g>
<!-- DarkNews_pdg&#45;&gt;DarkNews_detector -->
<g id="edge31" class="edge">
<title>DarkNews_pdg&#45;&gt;DarkNews_detector</title><style>.edge>path:hover{stroke-width:8}</style>
<path fill="none" stroke="black" d="M361.1,-378.07C396.39,-355.93 466.55,-314.9 532,-294.43 644.6,-259.2 678.22,-275.23 795,-258.43 821.59,-254.6 851.12,-250.17 875.68,-246.43"/>
<polygon fill="#db0505" stroke="black" points="876.52,-249.84 885.87,-244.87 875.46,-242.92 876.52,-249.84"/>
</g>
<!-- DarkNews_pdg&#45;&gt;DarkNews_model -->
<g id="edge32" class="edge">
<title>DarkNews_pdg&#45;&gt;DarkNews_model</title><style>.edge>path:hover{stroke-width:8}</style>
<path fill="none" stroke="black" d="M342,-314.64C342.27,-289.27 321.03,-270.01 299.97,-257.17"/>
<polygon fill="#db0505" stroke="black" points="301.44,-253.98 291.02,-252.06 297.97,-260.06 301.44,-253.98"/>
<path fill="none" stroke="black" d="M339.32,-375.78C340.4,-360.3 341.78,-336.97 342,-316.64"/>
</g>
<!-- DarkNews_pdg&#45;&gt;DarkNews_printer -->
<g id="edge33" class="edge">
<title>DarkNews_pdg&#45;&gt;DarkNews_printer</title><style>.edge>path:hover{stroke-width:8}</style>
<path fill="none" stroke="black" d="M323.15,-376.86C314.16,-367.03 302.46,-354.26 292.15,-343.01"/>
<polygon fill="#db0505" stroke="black" points="294.63,-340.53 285.29,-335.52 289.47,-345.26 294.63,-340.53"/>
</g>
<!-- DarkNews_pdg&#45;&gt;DarkNews_xsecs -->
<g id="edge34" class="edge">
<title>DarkNews_pdg&#45;&gt;DarkNews_xsecs</title><style>.edge>path:hover{stroke-width:8}</style>
<path fill="none" stroke="black" d="M342,-236.21C343.47,-224.39 674.39,-137.66 803.89,-104.16"/>
<polygon fill="#db0505" stroke="black" points="804.79,-107.54 813.59,-101.65 803.03,-100.76 804.79,-107.54"/>
</g>
<!-- DarkNews_phase_space&#45;&gt;DarkNews -->
<g id="edge35" class="edge">
<title>DarkNews_phase_space&#45;&gt;DarkNews</title><style>.edge>path:hover{stroke-width:8}</style>
<path fill="none" stroke="black" d="M147.9,-294.24C147.32,-277.19 149.4,-253.32 163,-238.21"/>
</g>
<!-- DarkNews_phase_space&#45;&gt;DarkNews_integrands -->
<g id="edge36" class="edge">
<title>DarkNews_phase_space&#45;&gt;DarkNews_integrands</title><style>.edge>path:hover{stroke-width:8}</style>
<path fill="none" stroke="black" d="M188.65,-300.87C196.62,-298.42 205.02,-296.11 213,-294.43 382.37,-258.62 587.44,-245.08 684.25,-240.42"/>
<polygon fill="#a32828" stroke="black" points="684.57,-243.91 694.39,-239.95 684.24,-236.92 684.57,-243.91"/>
</g>
<!-- DarkNews_printer&#45;&gt;DarkNews -->
<g id="edge37" class="edge">
<title>DarkNews_printer&#45;&gt;DarkNews</title><style>.edge>path:hover{stroke-width:8}</style>
<path fill="none" stroke="black" d="M237,-299.85C201.58,-282 150.06,-252.58 163,-238.21"/>
</g>
<!-- DarkNews_xsecs&#45;&gt;DarkNews -->
<g id="edge38" class="edge">
<title>DarkNews_xsecs&#45;&gt;DarkNews</title><style>.edge>path:hover{stroke-width:8}</style>
<path fill="none" stroke="black" d="M855,-71.7C855,-63.98 855,-54.71 855,-46.11"/>
<polygon fill="#993333" stroke="black" points="858.5,-46.1 855,-36.1 851.5,-46.1 858.5,-46.1"/>
</g>
<!-- dill -->
<g id="node17" class="node">
<title>dill</title><style>.edge>path:hover{stroke-width:8}</style>
<ellipse fill="#c0a040" stroke="black" cx="245" cy="-472.49" rx="27" ry="18"/>
<text text-anchor="middle" x="245" y="-469.99" font-family="Helvetica,sans-Serif" font-size="10.00" fill="#000000">dill</text>
</g>
<!-- dill&#45;&gt;DarkNews_printer -->
<g id="edge39" class="edge">
<title>dill&#45;&gt;DarkNews_printer</title><style>.edge>path:hover{stroke-width:8}</style>
<path fill="none" stroke="black" d="M252.66,-455.14C258.94,-439.69 266.16,-415.86 262,-395.07"/>
</g>
<!-- numpy -->
<g id="node18" class="node">
<title>numpy</title><style>.edge>path:hover{stroke-width:8}</style>
<ellipse fill="#7aef06" stroke="black" cx="662" cy="-626.13" rx="27.84" ry="18"/>
<text text-anchor="middle" x="662" y="-623.63" font-family="Helvetica,sans-Serif" font-size="10.00" fill="#000000">numpy</text>
</g>
<!-- numpy&#45;&gt;DarkNews -->
<g id="edge40" class="edge">
<title>numpy&#45;&gt;DarkNews</title><style>.edge>path:hover{stroke-width:8}</style>
<path fill="none" stroke="black" d="M1373,-393.07C1373,-247.6 1349.7,-194.01 1247,-91"/>
</g>
<!-- numpy&#45;&gt;DarkNews_GenLauncher -->
<g id="edge41" class="edge">
<title>numpy&#45;&gt;DarkNews_GenLauncher</title><style>.edge>path:hover{stroke-width:8}</style>
<path fill="none" stroke="black" d="M1154,-471.49C1128.98,-437.95 1121.28,-430.49 1099,-395.07"/>
<path fill="none" stroke="black" d="M1099,-393.07C1081.78,-365.68 1050.81,-346.58 1024.13,-334.33"/>
<polygon fill="#7aef06" stroke="black" points="1025.46,-331.09 1014.9,-330.27 1022.65,-337.5 1025.46,-331.09"/>
</g>
<!-- numpy&#45;&gt;DarkNews_MC -->
<g id="edge42" class="edge">
<title>numpy&#45;&gt;DarkNews_MC</title><style>.edge>path:hover{stroke-width:8}</style>
<path fill="none" stroke="black" d="M1099,-393.07C1074.21,-354.21 1091.63,-333.38 1067,-294.43 1039.88,-251.53 1028.5,-240.4 984,-216 983.54,-215.75 883.77,-190.74 821.6,-175.17"/>
<polygon fill="#7aef06" stroke="black" points="822.14,-171.7 811.59,-172.66 820.44,-178.49 822.14,-171.7"/>
</g>
<!-- numpy&#45;&gt;DarkNews_amplitudes -->
<g id="edge43" class="edge">
<title>numpy&#45;&gt;DarkNews_amplitudes</title><style>.edge>path:hover{stroke-width:8}</style>
<path fill="none" stroke="black" d="M1244,-549.92C1277.29,-509.35 1189.02,-512.57 1154,-473.49"/>
<path fill="none" stroke="black" d="M1154,-471.49C1108.73,-420.97 918.8,-358.36 828.75,-330.79"/>
<polygon fill="#7aef06" stroke="black" points="829.64,-327.4 819.06,-327.84 827.61,-334.1 829.64,-327.4"/>
<path fill="none" stroke="black" d="M689.66,-623.84C800.5,-618.37 1208.31,-595.41 1244,-551.92"/>
</g>
<!-- numpy&#45;&gt;DarkNews_const -->
<g id="edge44" class="edge">
<title>numpy&#45;&gt;DarkNews_const</title><style>.edge>path:hover{stroke-width:8}</style>
<path fill="none" stroke="black" d="M738,-471.49C747.52,-448.82 767.53,-429.7 785.16,-416.26"/>
<polygon fill="#7aef06" stroke="black" points="787.55,-418.85 793.56,-410.13 783.42,-413.2 787.55,-418.85"/>
</g>
<!-- numpy&#45;&gt;DarkNews_const_dics -->
<g id="edge45" class="edge">
<title>numpy&#45;&gt;DarkNews_const_dics</title><style>.edge>path:hover{stroke-width:8}</style>
<path fill="none" stroke="black" d="M1244,-549.92C1254.33,-537.33 1254.76,-519.26 1252.4,-503.85"/>
<polygon fill="#7aef06" stroke="black" points="1255.77,-502.84 1250.41,-493.7 1248.9,-504.19 1255.77,-502.84"/>
</g>
<!-- numpy&#45;&gt;DarkNews_decay_rates -->
<g id="edge46" class="edge">
<title>numpy&#45;&gt;DarkNews_decay_rates</title><style>.edge>path:hover{stroke-width:8}</style>
<path fill="none" stroke="black" d="M662,-471.49C645.73,-437.23 632.57,-432.02 624,-395.07"/>
<path fill="none" stroke="black" d="M662,-549.92C654.35,-516.83 676.57,-504.18 662,-473.49"/>
</g>
<!-- numpy&#45;&gt;DarkNews_detector -->
<g id="edge47" class="edge">
<title>numpy&#45;&gt;DarkNews_detector</title><style>.edge>path:hover{stroke-width:8}</style>
<path fill="none" stroke="black" d="M1099,-393.07C1071.56,-349.43 1075.84,-329.43 1038,-294.43 1019.64,-277.44 995.17,-264.2 974.06,-254.85"/>
<polygon fill="#7aef06" stroke="black" points="975.21,-251.53 964.64,-250.83 972.46,-257.97 975.21,-251.53"/>
</g>
<!-- numpy&#45;&gt;DarkNews_fourvec -->
<g id="edge48" class="edge">
<title>numpy&#45;&gt;DarkNews_fourvec</title><style>.edge>path:hover{stroke-width:8}</style>
<path fill="none" stroke="black" d="M76,-471.49C64.03,-449.11 86.24,-428.73 109.38,-414.66"/>
<polygon fill="#7aef06" stroke="black" points="111.3,-417.59 118.23,-409.58 107.81,-411.52 111.3,-417.59"/>
</g>
<!-- numpy&#45;&gt;DarkNews_integrands -->
<g id="edge49" class="edge">
<title>numpy&#45;&gt;DarkNews_integrands</title><style>.edge>path:hover{stroke-width:8}</style>
<path fill="none" stroke="black" d="M662,-549.92C651.2,-503.25 719.45,-517.66 738,-473.49"/>
<path fill="none" stroke="black" d="M738,-471.49C761.26,-416.1 728.67,-396.87 726,-336.85 725.16,-318.02 723.7,-313.14 726,-294.43 727.06,-285.77 729.01,-276.52 731.13,-268.09"/>
<polygon fill="#7aef06" stroke="black" points="734.54,-268.85 733.74,-258.28 727.78,-267.05 734.54,-268.85"/>
</g>
<!-- numpy&#45;&gt;DarkNews_model -->
<g id="edge50" class="edge">
<title>numpy&#45;&gt;DarkNews_model</title><style>.edge>path:hover{stroke-width:8}</style>
<path fill="none" stroke="black" d="M76,-471.49C43.63,-408.45 -11.58,-367.27 38,-316.64"/>
<path fill="none" stroke="black" d="M38,-314.64C47.4,-299.67 146.32,-269.69 208.59,-252.06"/>
<polygon fill="#7aef06" stroke="black" points="209.57,-255.42 218.25,-249.34 207.67,-248.68 209.57,-255.42"/>
<path fill="none" stroke="black" d="M159,-549.92C120.63,-517.63 92.2,-520.95 76,-473.49"/>
<path fill="none" stroke="black" d="M634.36,-624.6C544.1,-622.46 259.13,-612.6 178,-572.13 166.97,-566.63 168.43,-559.86 159,-551.92"/>
</g>
<!-- numpy&#45;&gt;DarkNews_nuclear_tools -->
<g id="edge51" class="edge">
<title>numpy&#45;&gt;DarkNews_nuclear_tools</title><style>.edge>path:hover{stroke-width:8}</style>
<path fill="none" stroke="black" d="M1373,-393.07C1374.58,-368.77 1355.03,-349.96 1334.62,-337.09"/>
<polygon fill="#7aef06" stroke="black" points="1336.27,-334 1325.88,-331.93 1332.72,-340.03 1336.27,-334"/>
<path fill="none" stroke="black" d="M1244,-549.92C1300.82,-480.67 1367.19,-484.45 1373,-395.07"/>
</g>
<!-- numpy&#45;&gt;DarkNews_pdg -->
<g id="edge52" class="edge">
<title>numpy&#45;&gt;DarkNews_pdg</title><style>.edge>path:hover{stroke-width:8}</style>
<path fill="none" stroke="black" d="M634.33,-623.15C573.4,-618.23 430.29,-603.56 395,-572.13 351.58,-533.45 341.04,-461.58 338.61,-422.35"/>
<polygon fill="#7aef06" stroke="black" points="342.1,-422.02 338.12,-412.2 335.1,-422.36 342.1,-422.02"/>
</g>
<!-- numpy&#45;&gt;DarkNews_phase_space -->
<g id="edge53" class="edge">
<title>numpy&#45;&gt;DarkNews_phase_space</title><style>.edge>path:hover{stroke-width:8}</style>
<path fill="none" stroke="black" d="M76,-471.49C54.95,-432.12 74.29,-412.4 95,-372.85 100.99,-361.42 110.05,-350.76 119.11,-341.87"/>
<polygon fill="#7aef06" stroke="black" points="121.72,-344.22 126.64,-334.84 116.94,-339.1 121.72,-344.22"/>
</g>
<!-- numpy&#45;&gt;DarkNews_printer -->
<g id="edge54" class="edge">
<title>numpy&#45;&gt;DarkNews_printer</title><style>.edge>path:hover{stroke-width:8}</style>
<path fill="none" stroke="black" d="M159,-549.92C121.39,-518.27 180.74,-491.49 209,-451.28 228.74,-423.19 268.74,-428.73 262,-395.07"/>
<path fill="none" stroke="black" d="M262,-393.07C259,-378.09 259.9,-361.19 261.8,-347.09"/>
<polygon fill="#7aef06" stroke="black" points="265.3,-347.36 263.4,-336.93 258.38,-346.27 265.3,-347.36"/>
</g>
<!-- numpy&#45;&gt;DarkNews_xsecs -->
<g id="edge55" class="edge">
<title>numpy&#45;&gt;DarkNews_xsecs</title><style>.edge>path:hover{stroke-width:8}</style>
<path fill="none" stroke="black" d="M1154,-471.49C1136.26,-447.71 1180.76,-443.47 1190,-415.28 1217.59,-331.09 1228.57,-293.14 1185,-216 1132.49,-123.02 998.51,-98.71 918.34,-92.66"/>
<polygon fill="#7aef06" stroke="black" points="918.57,-89.17 908.36,-91.98 918.1,-96.15 918.57,-89.17"/>
</g>
<!-- pandas -->
<g id="node20" class="node">
<title>pandas</title><style>.edge>path:hover{stroke-width:8}</style>
<ellipse fill="#31c456" stroke="black" cx="471" cy="-472.49" rx="28.69" ry="18"/>
<text text-anchor="middle" x="471" y="-469.99" font-family="Helvetica,sans-Serif" font-size="10.00" fill="#000000">pandas</text>
</g>
<!-- numpy&#45;&gt;pandas -->
<g id="edge56" class="edge">
<title>numpy&#45;&gt;pandas</title><style>.edge>path:hover{stroke-width:8}</style>
<path fill="none" stroke="black" d="M662,-549.92C658.28,-533.83 560.2,-501.08 506.08,-484.16"/>
<polygon fill="#7aef06" stroke="black" points="507.1,-480.81 496.52,-481.19 505.03,-487.5 507.1,-480.81"/>
<path fill="none" stroke="black" d="M664.16,-608.02C665.54,-593.02 666.35,-570.74 662,-551.92"/>
</g>
<!-- scipy -->
<g id="node24" class="node">
<title>scipy</title><style>.edge>path:hover{stroke-width:8}</style>
<ellipse fill="#7a0ce9" stroke="black" cx="825" cy="-550.92" rx="27" ry="18"/>
<text text-anchor="middle" x="825" y="-548.42" font-family="Helvetica,sans-Serif" font-size="10.00" fill="#ffffff">scipy</text>
</g>
<!-- numpy&#45;&gt;scipy -->
<g id="edge57" class="edge">
<title>numpy&#45;&gt;scipy</title><style>.edge>path:hover{stroke-width:8}</style>
<path fill="none" stroke="black" d="M685.3,-616.35C711.05,-606.43 753.56,-589.4 789,-572.13 791.45,-570.94 793.97,-569.65 796.48,-568.33"/>
<polygon fill="#7aef06" stroke="black" points="798.31,-571.32 805.41,-563.46 794.96,-565.17 798.31,-571.32"/>
</g>
<!-- vegas -->
<g id="node27" class="node">
<title>vegas</title><style>.edge>path:hover{stroke-width:8}</style>
<ellipse fill="#cc33a6" stroke="black" cx="1154" cy="-394.07" rx="27" ry="18"/>
<text text-anchor="middle" x="1154" y="-391.57" font-family="Helvetica,sans-Serif" font-size="10.00" fill="#ffffff">vegas</text>
</g>
<!-- numpy&#45;&gt;vegas -->
<g id="edge58" class="edge">
<title>numpy&#45;&gt;vegas</title><style>.edge>path:hover{stroke-width:8}</style>
<path fill="none" stroke="black" d="M1154,-471.49C1142.23,-458.36 1142.68,-438.27 1145.84,-421.98"/>
<polygon fill="#7aef06" stroke="black" points="1149.32,-422.47 1148.2,-411.94 1142.5,-420.87 1149.32,-422.47"/>
</g>
<!-- numpy_ma -->
<g id="node19" class="node">
<title>numpy_ma</title><style>.edge>path:hover{stroke-width:8}</style>
<ellipse fill="#7ad024" stroke="black" cx="662" cy="-698.13" rx="36.49" ry="18"/>
<text text-anchor="middle" x="662" y="-695.63" font-family="Helvetica,sans-Serif" font-size="10.00" fill="#000000">numpy.ma</text>
</g>
<!-- numpy_ma&#45;&gt;DarkNews_nuclear_tools -->
<g id="edge59" class="edge">
<title>numpy_ma&#45;&gt;DarkNews_nuclear_tools</title><style>.edge>path:hover{stroke-width:8}</style>
<path fill="none" stroke="black" d="M697.62,-694.06C846.47,-680.77 1411,-625.51 1411,-551.92 1411,-551.92 1411,-551.92 1411,-471.49 1411,-426.37 1413.94,-409.05 1387,-372.85 1374.72,-356.36 1356.06,-343.87 1338.44,-334.89"/>
<polygon fill="#7ad024" stroke="black" points="1339.89,-331.71 1329.36,-330.52 1336.85,-338.01 1339.89,-331.71"/>
</g>
<!-- numpy_ma&#45;&gt;DarkNews_phase_space -->
<g id="edge60" class="edge">
<title>numpy_ma&#45;&gt;DarkNews_phase_space</title><style>.edge>path:hover{stroke-width:8}</style>
<path fill="none" stroke="black" d="M625.47,-696.99C486.68,-695.5 0,-681.05 0,-551.92 0,-551.92 0,-551.92 0,-471.49 0,-409.16 63.47,-362.4 107.84,-337.32"/>
<polygon fill="#7ad024" stroke="black" points="109.63,-340.33 116.71,-332.45 106.26,-334.2 109.63,-340.33"/>
</g>
<!-- numpy_ma&#45;&gt;numpy -->
<g id="edge61" class="edge">
<title>numpy_ma&#45;&gt;numpy</title><style>.edge>path:hover{stroke-width:8}</style>
<path fill="none" stroke="black" d="M662,-679.83C662,-672.11 662,-662.84 662,-654.24"/>
<polygon fill="#7ad024" stroke="black" points="665.5,-654.24 662,-644.24 658.5,-654.24 665.5,-654.24"/>
</g>
<!-- pandas&#45;&gt;DarkNews_MC -->
<g id="edge62" class="edge">
<title>pandas&#45;&gt;DarkNews_MC</title><style>.edge>path:hover{stroke-width:8}</style>
<path fill="none" stroke="black" d="M465.5,-454.6C449.13,-403.67 402.82,-254.15 418,-238.21"/>
</g>
<!-- pandas&#45;&gt;DarkNews_printer -->
<g id="edge63" class="edge">
<title>pandas&#45;&gt;DarkNews_printer</title><style>.edge>path:hover{stroke-width:8}</style>
<path fill="none" stroke="black" d="M443.16,-466.98C388,-457.27 269.43,-432.19 262,-395.07"/>
</g>
<!-- particle -->
<g id="node21" class="node">
<title>particle</title><style>.edge>path:hover{stroke-width:8}</style>
<ellipse fill="#47c2c2" stroke="black" cx="216" cy="-550.92" rx="28.69" ry="18"/>
<text text-anchor="middle" x="216" y="-548.42" font-family="Helvetica,sans-Serif" font-size="10.00" fill="#000000">particle</text>
</g>
<!-- particle&#45;&gt;DarkNews_model -->
<g id="edge64" class="edge">
<title>particle&#45;&gt;DarkNews_model</title><style>.edge>path:hover{stroke-width:8}</style>
<path fill="none" stroke="black" d="M199.56,-535.76C148.35,-490.94 -2.51,-352.92 38,-316.64"/>
</g>
<!-- particle&#45;&gt;DarkNews_pdg -->
<g id="edge65" class="edge">
<title>particle&#45;&gt;DarkNews_pdg</title><style>.edge>path:hover{stroke-width:8}</style>
<path fill="none" stroke="black" d="M300,-471.49C308.56,-454.71 317.99,-435.74 325.31,-420.9"/>
<polygon fill="#47c2c2" stroke="black" points="328.51,-422.33 329.79,-411.81 322.23,-419.24 328.51,-422.33"/>
<path fill="none" stroke="black" d="M236.16,-537.84C256.08,-524.71 285.58,-501.77 300,-473.49"/>
</g>
<!-- particle_Particle -->
<g id="node22" class="node">
<title>particle_Particle</title><style>.edge>path:hover{stroke-width:8}</style>
<ellipse fill="#53b6b6" stroke="black" cx="300" cy="-550.92" rx="36.54" ry="21.43"/>
<text text-anchor="middle" x="300" y="-553.92" font-family="Helvetica,sans-Serif" font-size="10.00" fill="#000000">particle.</text>
<text text-anchor="middle" x="300" y="-542.92" font-family="Helvetica,sans-Serif" font-size="10.00" fill="#000000">Particle</text>
</g>
<!-- particle_Particle&#45;&gt;DarkNews_pdg -->
<g id="edge66" class="edge">
<title>particle_Particle&#45;&gt;DarkNews_pdg</title><style>.edge>path:hover{stroke-width:8}</style>
<path fill="none" stroke="black" d="M295.18,-529.6C292.46,-513.49 291.14,-490.87 300,-473.49"/>
</g>
<!-- pyximport -->
<g id="node23" class="node">
<title>pyximport</title><style>.edge>path:hover{stroke-width:8}</style>
<ellipse fill="#164df3" stroke="black" cx="439" cy="-550.92" rx="35.14" ry="18"/>
<text text-anchor="middle" x="439" y="-548.42" font-family="Helvetica,sans-Serif" font-size="10.00" fill="#ffffff">pyximport</text>
</g>
<!-- pyximport&#45;&gt;DarkNews -->
<g id="edge67" class="edge">
<title>pyximport&#45;&gt;DarkNews</title><style>.edge>path:hover{stroke-width:8}</style>
<path fill="none" stroke="black" d="M399,-314.64C398.15,-305.68 335.15,-168.83 342,-163"/>
<path fill="none" stroke="black" d="M435.64,-532.71C428.19,-494.16 410.1,-397.86 399,-316.64"/>
</g>
<!-- pyximport&#45;&gt;DarkNews_MC -->
<g id="edge68" class="edge">
<title>pyximport&#45;&gt;DarkNews_MC</title><style>.edge>path:hover{stroke-width:8}</style>
<path fill="none" stroke="black" d="M399,-314.64C395.7,-279.79 391.52,-261.1 418,-238.21"/>
</g>
<!-- pyximport&#45;&gt;DarkNews_amplitudes -->
<g id="edge69" class="edge">
<title>pyximport&#45;&gt;DarkNews_amplitudes</title><style>.edge>path:hover{stroke-width:8}</style>
<path fill="none" stroke="black" d="M474.29,-549.88C523.96,-548.12 615.2,-538.43 676,-493.71 702.55,-474.17 745.36,-390.85 767.21,-345.82"/>
<polygon fill="#164df3" stroke="black" points="770.48,-347.09 771.66,-336.56 764.17,-344.05 770.48,-347.09"/>
</g>
<!-- pyximport&#45;&gt;DarkNews_fourvec -->
<g id="edge70" class="edge">
<title>pyximport&#45;&gt;DarkNews_fourvec</title><style>.edge>path:hover{stroke-width:8}</style>
<path fill="none" stroke="black" d="M406.95,-542.77C345.63,-529.01 217.04,-499.64 209,-493.71 185.64,-476.47 169.78,-446.97 160.44,-424.71"/>
<polygon fill="#164df3" stroke="black" points="163.67,-423.36 156.71,-415.37 157.16,-425.95 163.67,-423.36"/>
</g>
<!-- pyximport&#45;&gt;DarkNews_integrands -->
<g id="edge71" class="edge">
<title>pyximport&#45;&gt;DarkNews_integrands</title><style>.edge>path:hover{stroke-width:8}</style>
<path fill="none" stroke="black" d="M462.59,-537.52C478.51,-527.83 498.45,-512.81 509,-493.71 552.1,-415.66 473.83,-361.99 532,-294.43 551.99,-271.21 631.56,-254.69 686.28,-245.8"/>
<polygon fill="#164df3" stroke="black" points="686.86,-249.25 696.19,-244.23 685.76,-242.34 686.86,-249.25"/>
</g>
<!-- pyximport&#45;&gt;DarkNews_phase_space -->
<g id="edge72" class="edge">
<title>pyximport&#45;&gt;DarkNews_phase_space</title><style>.edge>path:hover{stroke-width:8}</style>
<path fill="none" stroke="black" d="M417.49,-536.52C381.16,-513.51 305.96,-464.23 248,-415.28 240.41,-408.87 202.1,-369.96 175.69,-342.97"/>
<polygon fill="#164df3" stroke="black" points="178.08,-340.41 168.59,-335.71 173.08,-345.3 178.08,-340.41"/>
</g>
<!-- scipy&#45;&gt;DarkNews_const -->
<g id="edge73" class="edge">
<title>scipy&#45;&gt;DarkNews_const</title><style>.edge>path:hover{stroke-width:8}</style>
<path fill="none" stroke="black" d="M974,-471.49C977.68,-447.42 914.62,-423.3 867.57,-408.78"/>
<polygon fill="#7a0ce9" stroke="black" points="868.39,-405.37 857.81,-405.83 866.37,-412.07 868.39,-405.37"/>
<path fill="none" stroke="black" d="M851.81,-547.73C892.48,-542.72 965.91,-526.37 974,-473.49"/>
</g>
<!-- scipy&#45;&gt;DarkNews_decay_rates -->
<g id="edge74" class="edge">
<title>scipy&#45;&gt;DarkNews_decay_rates</title><style>.edge>path:hover{stroke-width:8}</style>
<path fill="none" stroke="black" d="M814.93,-533.99C801.73,-513.72 777.28,-478.1 752,-451.28 711.46,-408.25 657.63,-365.68 623.65,-340.27"/>
<polygon fill="#7a0ce9" stroke="black" points="625.57,-337.34 615.46,-334.19 621.4,-342.96 625.57,-337.34"/>
</g>
<!-- scipy&#45;&gt;DarkNews_detector -->
<g id="edge75" class="edge">
<title>scipy&#45;&gt;DarkNews_detector</title><style>.edge>path:hover{stroke-width:8}</style>
<path fill="none" stroke="black" d="M974,-471.49C985.75,-394.72 895.76,-394.26 893,-316.64"/>
</g>
<!-- scipy_integrate -->
<g id="node25" class="node">
<title>scipy_integrate</title><style>.edge>path:hover{stroke-width:8}</style>
<ellipse fill="#7f4cb3" stroke="black" cx="595" cy="-472.49" rx="38.78" ry="21.43"/>
<text text-anchor="middle" x="595" y="-475.49" font-family="Helvetica,sans-Serif" font-size="10.00" fill="#ffffff">scipy.</text>
<text text-anchor="middle" x="595" y="-464.49" font-family="Helvetica,sans-Serif" font-size="10.00" fill="#ffffff">integrate</text>
</g>
<!-- scipy_integrate&#45;&gt;DarkNews_decay_rates -->
<g id="edge76" class="edge">
<title>scipy_integrate&#45;&gt;DarkNews_decay_rates</title><style>.edge>path:hover{stroke-width:8}</style>
<path fill="none" stroke="black" d="M624,-393.07C620.21,-376.71 613.06,-359.46 606.38,-345.49"/>
<polygon fill="#7f4cb3" stroke="black" points="609.46,-343.81 601.88,-336.4 603.18,-346.91 609.46,-343.81"/>
<path fill="none" stroke="black" d="M609.05,-452.47C618.59,-437.27 628.68,-415.25 624,-395.07"/>
</g>
<!-- scipy_interpolate -->
<g id="node26" class="node">
<title>scipy_interpolate</title><style>.edge>path:hover{stroke-width:8}</style>
<ellipse fill="#7f33cc" stroke="black" cx="735" cy="-550.92" rx="44.6" ry="21.43"/>
<text text-anchor="middle" x="735" y="-553.92" font-family="Helvetica,sans-Serif" font-size="10.00" fill="#ffffff">scipy.</text>
<text text-anchor="middle" x="735" y="-542.92" font-family="Helvetica,sans-Serif" font-size="10.00" fill="#ffffff">interpolate</text>
</g>
<!-- scipy_interpolate&#45;&gt;DarkNews_const -->
<g id="edge77" class="edge">
<title>scipy_interpolate&#45;&gt;DarkNews_const</title><style>.edge>path:hover{stroke-width:8}</style>
<path fill="none" stroke="black" d="M898,-471.49C906.41,-446.56 882.91,-426.42 859.24,-413.09"/>
<polygon fill="#7f33cc" stroke="black" points="860.7,-409.91 850.23,-408.32 857.43,-416.09 860.7,-409.91"/>
<path fill="none" stroke="black" d="M769.16,-536.93C815.62,-518.83 893.53,-486.75 898,-473.49"/>
</g>
<!-- scipy_interpolate&#45;&gt;DarkNews_decay_rates -->
<g id="edge78" class="edge">
<title>scipy_interpolate&#45;&gt;DarkNews_decay_rates</title><style>.edge>path:hover{stroke-width:8}</style>
<path fill="none" stroke="black" d="M711.82,-532.54C695.02,-518.56 673.34,-497.36 662,-473.49"/>
</g>
<!-- scipy_interpolate&#45;&gt;DarkNews_detector -->
<g id="edge79" class="edge">
<title>scipy_interpolate&#45;&gt;DarkNews_detector</title><style>.edge>path:hover{stroke-width:8}</style>
<path fill="none" stroke="black" d="M898,-471.49C920.01,-406.25 888.81,-385.37 893,-316.64"/>
<path fill="none" stroke="black" d="M893,-314.64C893.9,-297.46 901.53,-279.98 909.54,-266.08"/>
<polygon fill="#7f33cc" stroke="black" points="912.56,-267.85 914.79,-257.5 906.58,-264.2 912.56,-267.85"/>
</g>
<!-- vegas&#45;&gt;DarkNews_MC -->
<g id="edge80" class="edge">
<title>vegas&#45;&gt;DarkNews_MC</title><style>.edge>path:hover{stroke-width:8}</style>
<path fill="none" stroke="black" d="M1162.19,-376.88C1176.2,-346.68 1200.52,-280.93 1171,-238.21"/>
<path fill="none" stroke="black" d="M1171,-236.21C1162.36,-225.27 1159.8,-221.54 1147,-216 1021.33,-161.6 975.7,-204.66 841,-180 834.32,-178.78 827.33,-177.28 820.47,-175.69"/>
<polygon fill="#cc33a6" stroke="black" points="821.12,-172.24 810.58,-173.31 819.48,-179.05 821.12,-172.24"/>
</g>
<!-- vegas&#45;&gt;DarkNews_integrands -->
<g id="edge81" class="edge">
<title>vegas&#45;&gt;DarkNews_integrands</title><style>.edge>path:hover{stroke-width:8}</style>
<path fill="none" stroke="black" d="M1141.08,-377.94C1121.29,-355.82 1081.18,-315.05 1038,-294.43 1016.23,-284.03 872.9,-259.71 793.22,-246.73"/>
<polygon fill="#cc33a6" stroke="black" points="793.32,-243.2 782.89,-245.05 792.2,-250.11 793.32,-243.2"/>
</g>
<!-- vegas&#45;&gt;DarkNews_xsecs -->
<g id="edge82" class="edge">
<title>vegas&#45;&gt;DarkNews_xsecs</title><style>.edge>path:hover{stroke-width:8}</style>
<path fill="none" stroke="black" d="M1171,-236.21C1105.98,-153.83 983.57,-116.37 911.68,-100.82"/>
<polygon fill="#cc33a6" stroke="black" points="912.39,-97.39 901.88,-98.76 910.95,-104.24 912.39,-97.39"/>
</g>
</g>
</svg>
