<?xml version="1.0" encoding="UTF-8" standalone="no"?>
<!-- Created with Inkscape (http://www.inkscape.org/) -->

<svg
   xmlns:dc="http://purl.org/dc/elements/1.1/"
   xmlns:cc="http://creativecommons.org/ns#"
   xmlns:rdf="http://www.w3.org/1999/02/22-rdf-syntax-ns#"
   xmlns:svg="http://www.w3.org/2000/svg"
   xmlns="http://www.w3.org/2000/svg"
   xmlns:sodipodi="http://sodipodi.sourceforge.net/DTD/sodipodi-0.dtd"
   xmlns:inkscape="http://www.inkscape.org/namespaces/inkscape"
   width="77.93631mm"
   height="63.01738mm"
   viewBox="0 0 77.93631 63.01738"
   version="1.1"
   id="svg903"
   inkscape:version="0.92.5 (2060ec1f9f, 2020-04-08)"
   sodipodi:docname="logo.svg">
  <defs
     id="defs897">
    <inkscape:path-effect
       effect="spiro"
       id="path-effect974-7"
       is_visible="true" />
  </defs>
  <sodipodi:namedview
     id="base"
     pagecolor="#ffffff"
     bordercolor="#666666"
     borderopacity="1.0"
     inkscape:pageopacity="0.0"
     inkscape:pageshadow="2"
     inkscape:zoom="1.4"
     inkscape:cx="218.29809"
     inkscape:cy="73.295643"
     inkscape:document-units="mm"
     inkscape:current-layer="layer1"
     showgrid="false"
     inkscape:window-width="1920"
     inkscape:window-height="1004"
     inkscape:window-x="0"
     inkscape:window-y="0"
     inkscape:window-maximized="1" />
  <metadata
     id="metadata900">
    <rdf:RDF>
      <cc:Work
         rdf:about="">
        <dc:format>image/svg+xml</dc:format>
        <dc:type
           rdf:resource="http://purl.org/dc/dcmitype/StillImage" />
        <dc:title></dc:title>
      </cc:Work>
    </rdf:RDF>
  </metadata>
  <g
     inkscape:label="Layer 1"
     inkscape:groupmode="layer"
     id="layer1"
     transform="translate(-41.162797,-59.116308)">
    <g
       id="g1489">
      <path
         style="opacity:1;vector-effect:none;fill:#89d9fb;fill-opacity:1;fill-rule:evenodd;stroke:none;stroke-width:0.40000007;stroke-linecap:round;stroke-linejoin:miter;stroke-miterlimit:4;stroke-dasharray:none;stroke-dashoffset:0;stroke-opacity:1;paint-order:normal"
         d="m 110.30859,91.05914 a 25,25 0 0 1 -24.999997,25 25,25 0 0 1 -25,-25 25,25 0 0 1 25,-25 25,25 0 0 1 24.999997,25 z"
         id="circle900-1"
         inkscape:connector-curvature="0" />
      <path
         d="m 84.394826,90.558022 a 17.799999,17.799999 0 0 1 11.238101,16.546358 17.799999,17.799999 0 0 1 -6.329375,13.61119 m -4.908726,-30.157548 1.010986,-1.748208 a 19.799999,19.799999 0 0 1 12.227109,18.294566 v 0 a 19.799999,19.799999 0 0 1 -6.909716,15.02931 l -1.419653,-1.41812"
         style="opacity:1;vector-effect:none;fill:#eb539f;fill-opacity:1;fill-rule:evenodd;stroke:none;stroke-width:0.40000001;stroke-linecap:round;stroke-linejoin:miter;stroke-miterlimit:4;stroke-dasharray:none;stroke-dashoffset:0;stroke-opacity:1;paint-order:normal"
         id="path951"
         inkscape:connector-curvature="0" />
      <path
         sodipodi:nodetypes="csccsc"
         inkscape:connector-curvature="0"
         d="m 86.363321,87.152596 c 3.21367,2.091346 6.965427,3.204607 10.799663,3.204607 10.019736,0 18.460196,-7.485115 19.658006,-17.432999 l -1.99365,-0.17376 c -1.10678,8.914109 -8.6818,15.606774 -17.664356,15.606774 -3.483422,0 -6.890285,-1.022086 -9.798429,-2.939627 z"
         style="opacity:1;vector-effect:none;fill:#eb539f;fill-opacity:1;fill-rule:evenodd;stroke:none;stroke-width:0.40000001;stroke-linecap:round;stroke-linejoin:miter;stroke-miterlimit:4;stroke-dasharray:none;stroke-dashoffset:0;stroke-opacity:1;paint-order:normal"
         id="path1016" />
      <path
         d="M 118.61619,98.090921 A 149.79999,149.80003 0 0 1 85.168775,89.270612 m 33.447415,8.820309 0.48292,-1.895263 a 147.79999,147.80003 0 0 1 -32.989712,-8.54927 l -0.940623,1.624224"
         style="opacity:1;vector-effect:none;fill:#eb539f;fill-opacity:1;fill-rule:evenodd;stroke:none;stroke-width:0.40000007;stroke-linecap:round;stroke-linejoin:miter;stroke-miterlimit:4;stroke-dasharray:none;stroke-dashoffset:0;stroke-opacity:1;paint-order:normal"
         id="path988"
         inkscape:connector-curvature="0" />
      <path
         style="opacity:1;vector-effect:none;fill:#eb539f;fill-opacity:1;stroke:none;stroke-width:0.40000001;stroke-linecap:butt;stroke-linejoin:miter;stroke-miterlimit:4;stroke-dasharray:none;stroke-dashoffset:0;stroke-opacity:1"
         d="m 85.319237,84.64506 -44.15644,-25.52875 3.54056,3.11826 40.262197,25.20197 z"
         id="path972-8"
         inkscape:connector-curvature="0" />
      <path
         sodipodi:nodetypes="ccccccccccccccccc"
         inkscape:connector-curvature="0"
         id="path902-7"
         d="m 105.23883,78.06461 -1.05317,0.52814 c 1.90844,3.30398 2.91629,7.05097 2.92282,10.86653 -1.7e-4,12.03957 -9.760135,21.79952 -21.799705,21.79968 -2.107715,-0.004 -4.194871,-0.31655 -6.199105,-0.91569 L 91.704252,88.5172 c 0.421399,-1.21785 -0.469781,-1.61779 -1.085723,-1.87068 L 84.770824,83.9764 c -0.35294,-0.15409 -0.741052,-0.32309 -1.118795,-0.22945 -0.377743,0.0937 -0.744882,0.45016 -1.055233,1.3467 -0.39851,1.15139 0.424556,1.59094 0.836126,1.81073 0.54846,0.29594 1.348753,0.79759 1.875853,1.15496 l -12.610084,21.87567 c -0.310229,0.89625 0.149871,1.44719 2.209708,2.63155 2.059839,1.18433 6.218171,2.28468 10.400376,2.29272 13.144263,-2.4e-4 23.799655,-10.65586 23.799585,-23.80012 -0.003,-4.61507 -1.34708,-9.12982 -3.86953,-12.99455 z"
         style="fill:#ffffff;stroke-width:0.35277781" />
      <path
         style="fill:#ffffff;stroke-width:0.35277778"
         inkscape:connector-curvature="0"
         d="m 72.064347,100.11051 c -2.009287,-1.16006 -3.72288,-0.53256 -4.542846,0.88767 l -1.860174,3.22191 0.407024,0.235 0.469985,-0.81404 5.127411,2.96031 -0.469985,0.81404 0.407019,0.23499 1.860174,-3.22191 c 0.835025,-1.44631 0.524001,-3.20795 -1.398608,-4.31797 z m -0.7351,1.27323 c 0.909402,0.52504 1.3544,0.87436 1.61533,1.30213 0.324993,0.55716 0.266347,1.23916 -0.09367,1.86273 l -0.505125,0.8749 -5.127411,-2.96031 0.500105,-0.86621 c 0.354995,-0.61487 0.92132,-1.01535 1.61455,-0.99623 0.492525,0.007 1.03491,0.22798 1.996219,0.78299 z m 6.131614,-4.35987 c -0.17335,-0.10008 -0.240365,-0.0235 -0.304128,0.0668 -0.261064,0.39194 -0.373551,0.327 -0.555596,0.22189 L 74.73042,96.2325 c -0.822733,-0.475 -1.695185,-0.12408 -2.310275,0.94128 -0.165028,0.28584 -0.802576,1.43026 -0.02305,1.88033 0.38094,0.21993 0.720503,0.012 0.855568,-0.2219 0.154988,-0.26845 0.133226,-0.65054 -0.230594,-0.86059 -0.277143,-0.16001 -0.548084,-0.0509 -0.548084,-0.0509 0.07044,-0.20169 0.09305,-0.28102 0.243174,-0.54105 0.299938,-0.5195 0.845721,-0.50477 1.434507,-0.16483 l 0.311921,0.18009 c -0.693971,1.26223 -0.933346,2.6369 -0.02393,3.16195 0.718666,0.41492 1.465794,-0.23911 1.840873,-0.88877 0.305093,-0.52843 0.2072,-1.05852 -0.07779,-1.46535 0.182045,0.1051 0.640961,0.37006 1.096063,-0.4182 l 0.209881,-0.36353 c 0.100096,-0.17337 0.160033,-0.27718 -0.04782,-0.39719 z m -1.897395,1.0061 c 0.744757,0.42999 0.61044,1.10313 0.465491,1.35418 -0.205027,0.35512 -0.67514,0.34926 -1.004176,0.15929 -0.952884,-0.55015 -0.396724,-1.75316 -0.284048,-1.98847 z m 0.948602,-6.24309 c -0.485007,-0.28002 -1.005168,0.10074 -1.245168,0.51644 -0.230161,0.39865 -0.232187,0.88218 0.238046,1.40801 l -0.005,0.009 -0.788224,-0.45508 -0.760698,1.47758 0.407015,0.23499 c 0.309977,-0.5369 0.344966,-0.5975 0.682702,-0.40251 l 2.67633,1.54518 -0.344965,0.5975 0.407019,0.23499 0.60391,-1.10624 c 0.190102,-0.32927 0.510119,-0.88355 0.716165,-1.1802 l -0.407019,-0.23499 -0.435022,0.75348 -1.55037,-0.8951 c -0.649658,-0.37508 -1.55335,-1.07003 -1.108289,-1.8409 0,0 0.05234,0.24944 0.303673,0.39455 0.355117,0.20503 0.688185,0.0279 0.833159,-0.22325 0.144923,-0.25101 0.123177,-0.63315 -0.223244,-0.83315 z m 5.882758,-2.82886 -0.407019,-0.23499 c -0.09006,0.15598 -0.165003,0.28579 -0.228766,0.37615 -0.09239,0.11986 -0.128239,0.12235 -0.286025,0.13524 l -2.569699,0.19086 -0.322394,-1.42194 c -0.03911,-0.17259 -0.05974,-0.27678 0.260272,-0.83107 L 78.43418,86.93728 c -0.08887,0.21417 -0.238864,0.47396 -0.358839,0.68177 -0.190003,0.32909 -0.522389,0.86464 -0.596191,0.97239 l 0.407015,0.23499 c 0.09006,-0.15598 0.24988,-0.35249 0.310473,-0.3175 0.02608,0.0151 0.04801,0.0969 0.04667,0.11934 l 0.413469,1.84398 -3.862877,-2.23023 -0.815775,1.57295 0.407024,0.235 c 0.309977,-0.5369 0.344965,-0.5975 0.682701,-0.40251 l 4.789675,2.76532 -0.344965,0.5975 0.407019,0.23499 0.573941,-1.05433 0.631129,-1.03291 -0.407019,-0.23499 -0.344966,0.5975 -1.143346,-0.66011 -0.105875,-0.47674 c 0.221013,-0.0226 1.805601,-0.14685 1.857497,-0.11689 0.08667,0.05 -0.02833,0.24924 -0.09826,0.37036 l 0.40702,0.23499 0.573941,-1.05433 c 0.199991,-0.3464 0.412353,-0.67406 0.531183,-0.8598 z"
         id="path1029" />
    </g>
  </g>
</svg>
