<?xml version="1.0" encoding="UTF-8" standalone="no"?>
<!-- Created with Inkscape (http://www.inkscape.org/) -->

<svg
   xmlns:dc="http://purl.org/dc/elements/1.1/"
   xmlns:cc="http://creativecommons.org/ns#"
   xmlns:rdf="http://www.w3.org/1999/02/22-rdf-syntax-ns#"
   xmlns:svg="http://www.w3.org/2000/svg"
   xmlns="http://www.w3.org/2000/svg"
   xmlns:sodipodi="http://sodipodi.sourceforge.net/DTD/sodipodi-0.dtd"
   xmlns:inkscape="http://www.inkscape.org/namespaces/inkscape"
   width="77.93631mm"
   height="63.017376mm"
   viewBox="0 0 77.93631 63.017376"
   version="1.1"
   id="svg1697"
   inkscape:version="0.92.5 (2060ec1f9f, 2020-04-08)"
   sodipodi:docname="logo_final.svg">
  <defs
     id="defs1691">
    <inkscape:path-effect
       effect="spiro"
       id="path-effect974-7"
       is_visible="true" />
  </defs>
  <sodipodi:namedview
     id="base"
     pagecolor="#ffffff"
     bordercolor="#666666"
     borderopacity="1.0"
     inkscape:pageopacity="0.0"
     inkscape:pageshadow="2"
     inkscape:zoom="0.35"
     inkscape:cx="437.28123"
     inkscape:cy="-183.76919"
     inkscape:document-units="mm"
     inkscape:current-layer="layer1"
     showgrid="false"
     inkscape:window-width="1920"
     inkscape:window-height="993"
     inkscape:window-x="0"
     inkscape:window-y="0"
     inkscape:window-maximized="1" />
  <metadata
     id="metadata1694">
    <rdf:RDF>
      <cc:Work
         rdf:about="">
        <dc:format>image/svg+xml</dc:format>
        <dc:type
           rdf:resource="http://purl.org/dc/dcmitype/StillImage" />
        <dc:title></dc:title>
      </cc:Work>
    </rdf:RDF>
  </metadata>
  <g
     inkscape:label="Layer 1"
     inkscape:groupmode="layer"
     id="layer1"
     transform="translate(198.47411,-37.193692)">
    <g
       transform="translate(-259.44449,17.854662)"
       style="display:inline"
       id="g977">
      <circle
         style="opacity:1;vector-effect:none;fill:#89d9fb;fill-opacity:1;fill-rule:evenodd;stroke:none;stroke-width:0.40000007;stroke-linecap:round;stroke-linejoin:miter;stroke-miterlimit:4;stroke-dasharray:none;stroke-dashoffset:0;stroke-opacity:1;paint-order:normal"
         id="circle959"
         cx="105.11617"
         cy="51.281864"
         r="25" />
      <path
         sodipodi:nodetypes="scccccs"
         d="m 115.44051,67.327095 c 0,-7.297687 -4.45439,-13.85609 -11.2381,-16.546353 l 1.01098,-1.748208 c 7.401,3.063586 12.22711,10.284541 12.22711,17.178543 0,6.894002 -2.52389,12.383719 -6.90971,16.14533 l -1.41966,-1.418113 c 4.01324,-3.382094 6.32938,-8.362897 6.32938,-13.611199 z"
         style="opacity:1;vector-effect:none;fill:#eb539f;fill-opacity:1;fill-rule:evenodd;stroke:none;stroke-width:0.40000001;stroke-linecap:round;stroke-linejoin:miter;stroke-miterlimit:4;stroke-dasharray:none;stroke-dashoffset:0;stroke-opacity:1;paint-order:normal"
         id="path961"
         inkscape:connector-curvature="0" />
      <path
         sodipodi:nodetypes="csccsc"
         inkscape:connector-curvature="0"
         d="m 106.1709,47.375316 c 3.21367,2.091346 6.96543,3.204607 10.79967,3.204607 10.01973,0 18.46019,-7.485115 19.658,-17.432999 l -1.99364,-0.17376 c -1.10679,8.914109 -8.68181,15.606774 -17.66436,15.606774 -3.48343,0 -6.89029,-1.022086 -9.79843,-2.939627 z"
         style="opacity:1;vector-effect:none;fill:#eb539f;fill-opacity:1;fill-rule:evenodd;stroke:none;stroke-width:0.40000001;stroke-linecap:round;stroke-linejoin:miter;stroke-miterlimit:4;stroke-dasharray:none;stroke-dashoffset:0;stroke-opacity:1;paint-order:normal"
         id="path963" />
      <path
         inkscape:connector-curvature="0"
         style="opacity:1;vector-effect:none;fill:#eb539f;fill-opacity:1;fill-rule:evenodd;stroke:none;stroke-width:1.51181126;stroke-linecap:round;stroke-linejoin:miter;stroke-miterlimit:4;stroke-dasharray:none;stroke-dashoffset:0;stroke-opacity:1;paint-order:normal"
         d="m 465.11275,208.96559 c -23.20502,-5.84356 -46.0355,-13.15723 -68.3517,-21.90418 v 0 l 3.55509,-6.1388 c 21.43111,8.29059 43.3354,15.24398 65.58626,20.82737"
         id="path966"
         transform="scale(0.26458333)" />
      <path
         sodipodi:nodetypes="ccccc"
         inkscape:connector-curvature="0"
         d="m 24.954675,265.39203 -44.15644,-25.52875 3.54056,3.11826 40.262197,25.20197 z"
         inkscape:original-d="m 24.954675,265.39203 -44.15644,-25.52875 3.54056,3.11826 40.262197,25.20197 z"
         inkscape:path-effect="#path-effect974-7"
         style="opacity:1;vector-effect:none;fill:#eb539f;fill-opacity:1;stroke:none;stroke-width:0.40000001;stroke-linecap:butt;stroke-linejoin:miter;stroke-miterlimit:4;stroke-dasharray:none;stroke-dashoffset:0;stroke-opacity:1"
         transform="translate(80.172145,-220.52425)"
         id="path968" />
      <path
         sodipodi:nodetypes="ccccccccccccccccc"
         inkscape:connector-curvature="0"
         id="path970"
         d="m 125.04641,38.28733 -1.05316,0.52814 c 1.90844,3.30398 2.91628,7.05097 2.92281,10.86653 -1.7e-4,12.03957 -9.76013,21.79952 -21.7997,21.79968 -2.10772,-0.004 -4.19487,-0.31655 -6.199107,-0.91569 L 111.51184,48.73992 c 0.42139,-1.21785 -0.46979,-1.61779 -1.08573,-1.87068 l -5.8477,-2.67012 c -0.35294,-0.15409 -0.74105,-0.32309 -1.1188,-0.22945 -0.37774,0.0937 -0.74488,0.45016 -1.05523,1.3467 -0.39851,1.15139 0.42456,1.59094 0.83613,1.81073 0.54846,0.29594 1.34875,0.79759 1.87585,1.15496 L 92.506274,70.15773 c -0.310229,0.89625 0.149871,1.44719 2.209708,2.63155 2.059839,1.18433 6.218168,2.28468 10.400378,2.29272 13.14426,-2.4e-4 23.79965,-10.65586 23.79958,-23.80012 -0.003,-4.61507 -1.34708,-9.12982 -3.86953,-12.99455 z"
         style="fill:#ffffff;stroke-width:0.35277781" />
      <path
         style="fill:#ffffff;stroke-width:0.35277778"
         inkscape:connector-curvature="0"
         d="m 91.87193,60.33323 c -2.009287,-1.16006 -3.72288,-0.53256 -4.542846,0.88767 l -1.860174,3.22191 0.407024,0.235 0.469986,-0.81404 5.12741,2.96031 -0.469985,0.81404 0.407019,0.23499 1.860174,-3.22191 c 0.835025,-1.44631 0.524001,-3.20795 -1.398608,-4.31797 z m -0.7351,1.27323 c 0.909402,0.52504 1.3544,0.87436 1.61533,1.30213 0.324993,0.55716 0.266347,1.23916 -0.09367,1.86273 l -0.505125,0.8749 -5.127411,-2.96031 0.500105,-0.86621 c 0.354995,-0.61487 0.92132,-1.01535 1.61455,-0.99623 0.492525,0.007 1.03491,0.22798 1.996219,0.78299 z m 6.131614,-4.35987 c -0.17335,-0.10008 -0.240365,-0.0235 -0.304128,0.0668 -0.261064,0.39194 -0.373551,0.327 -0.555596,0.22189 l -1.870717,-1.08006 c -0.822733,-0.475 -1.695185,-0.12408 -2.310275,0.94128 -0.165028,0.28584 -0.802576,1.43026 -0.02305,1.88033 0.38094,0.21993 0.720503,0.012 0.855568,-0.2219 0.154988,-0.26845 0.133226,-0.65054 -0.230594,-0.86059 -0.277143,-0.16001 -0.548084,-0.0509 -0.548084,-0.0509 0.07044,-0.20169 0.09305,-0.28102 0.243174,-0.54105 0.299938,-0.5195 0.845721,-0.50477 1.434507,-0.16483 l 0.311921,0.18009 c -0.693971,1.26223 -0.933346,2.6369 -0.02393,3.16195 0.718666,0.41492 1.465794,-0.23911 1.840873,-0.88877 0.305093,-0.52843 0.2072,-1.05852 -0.07779,-1.46535 0.182045,0.1051 0.640961,0.37006 1.096063,-0.4182 l 0.209881,-0.36353 c 0.100096,-0.17337 0.160033,-0.27718 -0.04782,-0.39719 z m -1.897395,1.0061 c 0.744757,0.42999 0.61044,1.10313 0.465491,1.35418 -0.205027,0.35512 -0.67514,0.34926 -1.004176,0.15929 C 93.87948,59.21601 94.43564,58.013 94.548316,57.77769 Z m 0.948602,-6.24309 c -0.485007,-0.28002 -1.005168,0.10074 -1.245168,0.51644 -0.230161,0.39865 -0.232187,0.88218 0.238046,1.40801 l -0.005,0.009 -0.788224,-0.45508 -0.760698,1.47758 0.407015,0.23499 c 0.309977,-0.5369 0.344966,-0.5975 0.682702,-0.40251 l 2.67633,1.54518 -0.344965,0.5975 0.407019,0.23499 0.60391,-1.10624 c 0.190102,-0.32927 0.510119,-0.88355 0.716165,-1.1802 l -0.407019,-0.23499 -0.435022,0.75348 -1.55037,-0.8951 c -0.649658,-0.37508 -1.55335,-1.07003 -1.108289,-1.8409 0,0 0.05234,0.24944 0.303673,0.39455 0.355117,0.20503 0.688185,0.0279 0.833159,-0.22325 0.144923,-0.25101 0.123177,-0.63315 -0.223244,-0.83315 z m 5.882759,-2.82886 -0.40702,-0.23499 c -0.0901,0.15598 -0.165,0.28579 -0.22877,0.37615 -0.0924,0.11986 -0.12823,0.12235 -0.28602,0.13524 L 98.7109,49.648 98.388506,48.22606 c -0.03911,-0.17259 -0.05974,-0.27678 0.260272,-0.83107 L 98.241763,47.16 c -0.08887,0.21417 -0.238864,0.47396 -0.358839,0.68177 -0.190003,0.32909 -0.522389,0.86464 -0.596191,0.97239 l 0.407015,0.23499 c 0.09006,-0.15598 0.24988,-0.35249 0.310473,-0.3175 0.02608,0.0151 0.04801,0.0969 0.04667,0.11934 l 0.413469,1.84398 -3.862877,-2.23023 -0.815775,1.57295 0.407024,0.235 c 0.309977,-0.5369 0.344965,-0.5975 0.682701,-0.40251 l 4.789675,2.76532 -0.344965,0.5975 0.407019,0.23499 0.573938,-1.05433 0.63113,-1.03291 -0.40702,-0.23499 -0.34496,0.5975 -1.143349,-0.66011 -0.105875,-0.47674 c 0.221013,-0.0226 1.805604,-0.14685 1.857494,-0.11689 0.0867,0.05 -0.0283,0.24924 -0.0983,0.37036 l 0.40702,0.23499 0.57394,-1.05433 c 0.2,-0.3464 0.41236,-0.67406 0.53119,-0.8598 z"
         id="path973" />
      <path
         style="opacity:1;vector-effect:none;fill:#eb539f;fill-opacity:1;fill-rule:evenodd;stroke:none;stroke-width:0.40000007;stroke-linecap:round;stroke-linejoin:miter;stroke-miterlimit:4;stroke-dasharray:none;stroke-dashoffset:0;stroke-opacity:1;paint-order:normal"
         d="m 122.49417,53.182765 c 5.40087,1.386369 10.88036,2.46715 16.41252,3.235611 l -0.48291,1.895263 c -5.43925,-0.778282 -10.82699,-1.854586 -16.13916,-3.222569"
         id="path975"
         inkscape:connector-curvature="0" />
    </g>
  </g>
</svg>
